<svg width="34" height="34" viewBox="0 0 34 34" fill="none" xmlns="http://www.w3.org/2000/svg">
<path d="M28.7824 5.88751C26.6154 4.89318 24.2916 4.1606 21.8619 3.74102C21.8176 3.73292 21.7734 3.75316 21.7506 3.79363C21.4517 4.32519 21.1207 5.01864 20.8889 5.5637C18.2756 5.17246 15.6757 5.17246 13.116 5.5637C12.8841 5.00653 12.541 4.32519 12.2408 3.79363C12.218 3.75451 12.1738 3.73427 12.1296 3.74102C9.70121 4.15926 7.37738 4.89184 5.20899 5.88751C5.19022 5.8956 5.17413 5.90911 5.16345 5.92663C0.755638 12.5118 -0.451846 18.9351 0.140505 25.2788C0.143185 25.3098 0.160607 25.3395 0.184731 25.3584C3.09288 27.4941 5.90992 28.7906 8.67465 29.65C8.71889 29.6635 8.76577 29.6473 8.79393 29.6109C9.44793 28.7178 10.0309 27.7761 10.5308 26.7858C10.5603 26.7278 10.5321 26.659 10.4718 26.636C9.5471 26.2853 8.6666 25.8576 7.81962 25.3719C7.75262 25.3328 7.74726 25.237 7.80889 25.1911C7.98713 25.0575 8.16541 24.9186 8.3356 24.7782C8.36639 24.7526 8.4093 24.7472 8.4455 24.7634C14.0098 27.3039 20.0339 27.3039 25.5325 24.7634C25.5687 24.7459 25.6116 24.7513 25.6438 24.7769C25.814 24.9172 25.9922 25.0575 26.1718 25.1911C26.2334 25.237 26.2294 25.3328 26.1624 25.3719C25.3154 25.867 24.4349 26.2853 23.5089 26.6347C23.4486 26.6576 23.4218 26.7278 23.4513 26.7858C23.9619 27.7747 24.5448 28.7164 25.1868 29.6096C25.2136 29.6473 25.2618 29.6635 25.3061 29.65C28.0842 28.7906 30.9012 27.4941 33.8094 25.3584C33.8348 25.3395 33.8509 25.3112 33.8536 25.2802C34.5625 17.9462 32.6662 11.5755 28.8266 5.92797C28.8173 5.90911 28.8012 5.8956 28.7824 5.88751ZM11.3617 21.4162C9.68646 21.4162 8.3061 19.8782 8.3061 17.9894C8.3061 16.1005 9.65969 14.5625 11.3617 14.5625C13.0771 14.5625 14.4441 16.114 14.4172 17.9894C14.4172 19.8782 13.0637 21.4162 11.3617 21.4162ZM22.6592 21.4162C20.984 21.4162 19.6037 19.8782 19.6037 17.9894C19.6037 16.1005 20.9572 14.5625 22.6592 14.5625C24.3746 14.5625 25.7416 16.114 25.7148 17.9894C25.7148 19.8782 24.3746 21.4162 22.6592 21.4162Z" fill="#A0A3BD"/>
</svg>
