<svg width="35" height="35" viewBox="0 0 35 35" fill="none" xmlns="http://www.w3.org/2000/svg">
<path d="M19.7421 17.2491C19.7421 22.748 15.3226 27.2058 9.87122 27.2058C4.41981 27.2058 0 22.747 0 17.2491C0 11.7511 4.41948 7.29199 9.87122 7.29199C15.323 7.29199 19.7421 11.7501 19.7421 17.2491Z" fill="#A0A3BD"/>
<path d="M30.5707 17.2488C30.5707 22.4249 28.3609 26.6226 25.6351 26.6226C22.9092 26.6226 20.6995 22.4249 20.6995 17.2488C20.6995 12.0727 22.9089 7.875 25.6347 7.875C28.3606 7.875 30.5704 12.0714 30.5704 17.2488" fill="#A0A3BD"/>
<path d="M35 17.249C35 21.8855 34.2229 25.6465 33.2641 25.6465C32.3053 25.6465 31.5286 21.8865 31.5286 17.249C31.5286 12.6115 32.3056 8.85156 33.2641 8.85156C34.2226 8.85156 35 12.6112 35 17.249Z" fill="#A0A3BD"/>
</svg>
