<svg width="35" height="35" viewBox="0 0 35 35" fill="none" xmlns="http://www.w3.org/2000/svg">
<g clip-path="url(#clip0_649_14235)">
<path d="M11.0106 31.7188C24.2149 31.7188 31.4392 20.7765 31.4392 11.2903C31.4392 10.9827 31.4323 10.6682 31.4187 10.3606C32.824 9.34431 34.0368 8.08546 35 6.64323C33.6912 7.22555 32.3016 7.60586 30.8786 7.77116C32.3769 6.87308 33.4987 5.46224 34.0361 3.80017C32.6266 4.63549 31.0852 5.22473 29.4779 5.54265C28.395 4.39195 26.9631 3.63005 25.4037 3.37475C23.8443 3.11945 22.2442 3.38496 20.8509 4.13023C19.4575 4.87551 18.3485 6.05904 17.6952 7.49784C17.0419 8.93664 16.8808 10.5506 17.2368 12.0901C14.3828 11.9469 11.5907 11.2055 9.04164 9.91399C6.49254 8.62248 4.2433 6.80969 2.43975 4.59314C1.52308 6.17357 1.24258 8.04374 1.65525 9.82356C2.06792 11.6034 3.1428 13.1593 4.66143 14.1751C3.52133 14.1389 2.40621 13.8319 1.4082 13.2796V13.3684C1.40718 15.027 1.98056 16.6347 3.03087 17.9183C4.08118 19.2019 5.5436 20.0822 7.16953 20.4094C6.11341 20.6984 5.00497 20.7405 3.92998 20.5325C4.38879 21.9589 5.28146 23.2064 6.48342 24.101C7.68537 24.9956 9.13663 25.4926 10.6347 25.5227C8.09145 27.5205 4.94984 28.604 1.71582 28.5989C1.14229 28.598 0.569332 28.5629 0 28.4936C3.28542 30.6014 7.10723 31.7209 11.0106 31.7188Z" fill="#A0A3BD"/>
</g>
<defs>
<clipPath id="clip0_649_14235">
<rect width="35" height="35" fill="white"/>
</clipPath>
</defs>
</svg>
