<svg width="24" height="25" viewBox="0 0 24 25" fill="none" xmlns="http://www.w3.org/2000/svg">
<path fill-rule="evenodd" clip-rule="evenodd" d="M11.7712 14.5359L8.86364 17.5551L11.5447 20.6861L10.7516 21.5807L7.65525 18.8596L4.10574 22.6243C4.21903 23.1834 4.06791 23.817 3.61491 24.3015C2.8597 25.1588 1.53802 25.2333 0.7073 24.4878C-0.161199 23.7424 -0.23667 22.4751 0.518538 21.6178C0.933884 21.1333 1.53816 20.9097 2.18011 20.9097L5.46539 16.9961L2.33119 14.2751L3.12422 13.3805L6.63609 15.6168L9.50587 12.1504L11.7715 14.5359L11.7712 14.5359Z" fill="white"/>
<path fill-rule="evenodd" clip-rule="evenodd" d="M22.573 0L21.7045 4.02543L14.681 11.4427L12.4531 8.75905L18.646 1.37882L22.573 0Z" fill="white"/>
<path fill-rule="evenodd" clip-rule="evenodd" d="M2.10547 0.559268L3.01179 4.5847L15.1332 17.4064L12.4522 20.5374L13.2453 21.432L16.3795 18.711L19.8913 22.4383C19.778 23.0346 19.9668 23.6682 20.3822 24.1528C21.1374 25.0101 22.459 25.0846 23.3276 24.3392C24.1583 23.5937 24.2339 22.2891 23.4787 21.4318C23.0634 20.9473 22.4591 20.7237 21.8549 20.7609L18.532 16.8099L21.6662 14.0889L20.8732 13.1943L17.3613 15.4307L6.07061 1.93768L2.10573 0.558594L2.10547 0.559268Z" fill="white"/>
</svg>
