<svg width="22" height="25" viewBox="0 0 22 25" fill="none" xmlns="http://www.w3.org/2000/svg">
<path fill-rule="evenodd" clip-rule="evenodd" d="M11.0006 18.633H8.30341C7.78378 18.633 7.57836 18.3569 7.41759 17.8714L6.85022 16.1551C6.76183 15.8883 6.73519 15.6328 6.51601 15.4523C4.98598 14.1941 4.0129 12.3047 4.0129 10.1922C4.0129 6.40439 7.14157 3.33352 11.0008 3.33352C14.86 3.33352 17.9886 6.40461 17.9886 10.1922C17.9886 12.3046 17.0158 14.1941 15.4855 15.4523C15.2663 15.6328 15.2397 15.8882 15.1513 16.1551L14.5839 17.8714C14.4231 18.3569 14.2177 18.633 13.6981 18.633H11.0006ZM9.82588 24.0021H12.2282V24.5013C12.2282 24.7755 11.9997 25 11.7201 25H10.334C10.0542 25 9.82588 24.7755 9.82588 24.5013V24.0021ZM8.76684 22.4387L13.287 22.2406C13.5941 22.2268 13.8453 22.4631 13.8453 22.7648V22.7653C13.8453 23.0672 13.5941 23.3255 13.287 23.3387L8.76684 23.5371C8.45973 23.5504 8.20857 23.3145 8.20857 23.0124C8.20857 22.7105 8.45973 22.4522 8.76684 22.4387V22.4387ZM8.54234 20.9196L13.5115 20.7016C13.8186 20.6883 14.0698 20.9242 14.0698 21.2263C14.0698 21.5282 13.8186 21.7865 13.5115 21.7998L8.54234 22.0182C8.23522 22.0315 7.98407 21.7956 7.98407 21.4935V21.4931C7.98407 21.1912 8.23522 20.9333 8.54234 20.9196V20.9196ZM8.54234 19.3903L13.5115 19.1723C13.8186 19.159 14.0698 19.3949 14.0698 19.697C14.0698 19.9989 13.8186 20.2572 13.5115 20.2707L8.54234 20.4887C8.23522 20.502 7.98407 20.2661 7.98407 19.964C7.98407 19.6621 8.23522 19.4038 8.54234 19.3903ZM1.73811 16.4036C1.62152 16.4727 1.58444 16.6215 1.65483 16.736C1.72523 16.8504 1.8769 16.8868 1.99348 16.8177L3.73402 15.7845C3.85061 15.7154 3.88813 15.5661 3.81752 15.4521C3.74712 15.3376 3.59546 15.3008 3.47887 15.3701L1.73788 16.4037L1.73811 16.4036ZM1.60132 13.5164C1.4703 13.5535 1.3948 13.6876 1.43254 13.8159C1.46985 13.9446 1.60642 14.0187 1.73744 13.982L2.71518 13.7067C2.8462 13.6697 2.9217 13.5356 2.8844 13.4072C2.84709 13.2786 2.71008 13.2045 2.57928 13.2411L1.60154 13.5164H1.60132ZM0.242743 10.9857C0.106619 10.9876 -0.00197386 11.0977 2.72174e-05 11.2313C0.00202579 11.365 0.114168 11.472 0.250293 11.47L2.28463 11.4395C2.42119 11.4375 2.52934 11.3275 2.52734 11.1934C2.52534 11.0602 2.4132 10.9532 2.27708 10.9552L0.242743 10.9857ZM1.60802 8.42506C1.4759 8.39215 1.34177 8.47084 1.30802 8.6001C1.27448 8.72979 1.35465 8.86145 1.48633 8.89458L2.47255 9.14069C2.60423 9.1736 2.7388 9.09535 2.77211 8.96565C2.80587 8.83595 2.72592 8.70429 2.59379 8.6716L1.60802 8.42506ZM1.73527 5.56735C1.61669 5.50174 1.46635 5.54272 1.39951 5.65912C1.33267 5.77552 1.37441 5.92309 1.493 5.9887L3.26554 6.97005C3.38412 7.03522 3.53447 6.99424 3.6013 6.87784C3.66815 6.76144 3.6264 6.61387 3.50737 6.54826L1.73527 5.56735ZM4.22951 4.03211C4.13291 3.93838 3.97636 3.93947 3.88087 4.03494C3.78538 4.1302 3.78649 4.28344 3.88375 4.37717L4.60835 5.07799C4.70539 5.17173 4.8615 5.17064 4.95743 5.07516C5.05292 4.97991 5.05182 4.82667 4.95455 4.73293L4.22951 4.03211ZM5.8086 1.62735C5.73976 1.51182 5.58853 1.47302 5.47106 1.54016C5.35337 1.60773 5.31384 1.75574 5.38223 1.87149L6.40864 3.59612C6.47703 3.71143 6.62826 3.75045 6.74573 3.68288C6.86343 3.61574 6.9034 3.4673 6.83456 3.35155L5.8086 1.62735ZM8.71476 1.40588C8.67946 1.27662 8.54355 1.20033 8.41231 1.2352C8.28107 1.2703 8.2029 1.40326 8.23843 1.53209L8.54089 2.62744C8.5762 2.75627 8.7121 2.83299 8.84334 2.79768C8.97458 2.76302 9.05231 2.62962 9.01677 2.5008L8.71476 1.40588ZM20.2619 16.4034C20.378 16.4725 20.4156 16.6214 20.3452 16.7358C20.2748 16.8503 20.1231 16.8867 20.0065 16.8176L18.266 15.7843C18.1489 15.7152 18.1119 15.5659 18.1825 15.4519C18.2529 15.3375 18.4045 15.3006 18.5211 15.3699L20.2621 16.4036L20.2619 16.4034ZM20.3987 13.5163C20.5293 13.5533 20.6052 13.6874 20.5675 13.8158C20.5301 13.9444 20.3936 14.0185 20.2626 13.9819L19.2848 13.7066C19.1538 13.6695 19.0779 13.5355 19.1156 13.4071C19.1529 13.2785 19.2899 13.2044 19.4205 13.241L20.3987 13.5163ZM21.7573 10.9855C21.8934 10.9875 22.002 11.0976 22 11.2312C21.998 11.3648 21.8858 11.4718 21.7497 11.4699L19.7154 11.4393C19.5788 11.4374 19.4702 11.3273 19.4727 11.1932C19.4747 11.0601 19.5866 10.953 19.7229 10.955L21.7573 10.9855ZM20.392 8.4249C20.5241 8.39199 20.6582 8.47068 20.692 8.59994C20.7255 8.72964 20.6453 8.8613 20.5137 8.89443L19.5275 9.14053C19.3958 9.17344 19.2612 9.09519 19.2279 8.96549C19.1941 8.8358 19.2741 8.70414 19.4062 8.67144L20.392 8.4249ZM20.2647 5.5672C20.3833 5.50158 20.5337 5.54256 20.6005 5.65896C20.6673 5.77536 20.6256 5.92294 20.507 5.98854L18.7345 6.96989C18.6159 7.03507 18.4655 6.99409 18.3987 6.87769C18.3319 6.76129 18.3736 6.61371 18.4922 6.54811L20.2647 5.5672ZM17.7705 4.03195C17.8671 3.93822 18.0236 3.93931 18.1191 4.03479C18.2146 4.13004 18.2135 4.28328 18.1162 4.37701L17.3916 5.07784C17.2946 5.17157 17.1385 5.17048 17.0426 5.07501C16.9471 4.97975 16.9482 4.82651 17.0455 4.73278L17.7705 4.03195ZM16.1914 1.62719C16.2602 1.51167 16.4115 1.47287 16.5289 1.54C16.6466 1.60757 16.6862 1.75558 16.6178 1.87133L15.5914 3.59597C15.523 3.71128 15.3717 3.75029 15.2538 3.68272C15.1363 3.61559 15.0966 3.46714 15.1654 3.3514L16.1914 1.62719ZM13.2852 1.40572C13.3205 1.27646 13.4564 1.20017 13.5877 1.23505C13.7189 1.27014 13.7971 1.40311 13.7616 1.53193L13.4591 2.62728C13.4238 2.75611 13.2879 2.83284 13.1567 2.79753C13.0254 2.76287 12.9472 2.62947 12.9832 2.50064L13.2852 1.40572ZM10.7532 0.241737C10.7532 0.108118 10.8638 0 11 0C11.1361 0 11.2467 0.108118 11.2467 0.241737V2.23886C11.2467 2.37248 11.1361 2.48103 11 2.48103C10.8638 2.48103 10.7532 2.37248 10.7532 2.23886V0.241737Z" fill="white"/>
</svg>
