<svg width="20" height="25" viewBox="0 0 20 25" fill="none" xmlns="http://www.w3.org/2000/svg">
<path d="M13.8089 5.44185C13.8089 5.44185 15.2151 8.0495 15.2151 9.7533C15.2151 11.4524 13.1648 14.2874 13.1648 14.2874C13.0468 13.3789 12.2273 11.2243 11.816 10.2033C11.4046 9.18536 10.5851 7.54015 10.5851 5.15983C10.5851 2.77951 12.2855 0 12.2855 0C6.24607 1.92644 4.89724 5.49966 4.89724 8.67446C4.89724 11.8461 7.30153 16.0998 7.30153 16.0998C6.48205 15.1912 5.1906 13.8319 4.13513 12.4719C3.07967 11.1118 2.25776 8.33542 2.25776 8.33542C2.25776 8.33542 0.5 10.1478 0.5 13.4343C0.5 16.7232 3.19766 19.898 3.95976 20.8604C4.72186 21.8275 4.72186 22.6197 5.30859 23.4681C5.89209 24.3188 6.7148 24.9414 7.5957 24.9414C7.62722 24.9414 7.66197 24.9414 7.69268 24.9445L5.07342 17.2911L10.1156 18.1996L7.00898 7.93857L14.63 21.0331L8.88715 20.2378L11.268 25H11.2882C12.1109 25 13.2812 24.8859 14.3972 23.9235C15.5133 22.9595 16.6835 20.0675 17.3276 18.6527C17.975 17.2325 19.5 15.3053 19.5 12.075C19.5 6.85973 13.8105 5.44185 13.8105 5.44185H13.8089Z" fill="white"/>
</svg>
