<svg width="16" height="25" viewBox="0 0 16 25" fill="none" xmlns="http://www.w3.org/2000/svg">
<path d="M2.91117 12.1476C2.39535 11.9982 1.95753 11.785 1.60547 11.5122V20.8058C1.94079 21.1096 2.3794 21.3441 2.91117 21.5065V12.1476Z" fill="white"/>
<path d="M0.75 21.9483V22.5491C1.04813 24.7408 3.67435 24.975 4.27644 25V23.6995C3.72951 23.676 1.52817 23.4844 0.75 21.9482V21.9483Z" fill="white"/>
<path d="M0.75 8.729V21.1183C1.03682 23.1995 3.67373 23.4359 4.27608 23.4623L4.27628 10.4797C3.72976 10.4561 1.52822 10.2646 0.750047 8.72905L0.75 8.729ZM1.36265 10.9629L1.57386 11.1621C1.94456 11.5114 2.44947 11.7746 3.07464 11.9441L3.16499 11.9685V21.8241L3.00733 21.7819C2.34232 21.6032 1.80165 21.3205 1.39945 20.9416L1.36225 20.9063L1.36265 10.9629Z" fill="white"/>
<path d="M13.4193 6.21973L6.23828 10.3899V21.238L13.4193 17.0669V6.21973Z" fill="white"/>
<path d="M14.2546 3.03292L11.5996 1.24801V0L0.75 6.30107V7.89883C1.03742 9.98468 3.67435 10.2172 4.27608 10.2418V8.75289C3.75016 8.73061 1.6893 8.54789 0.971567 7.04992L11.0011 1.22306L13.9533 3.20778L4.52507 8.68394V24.9309L15.25 18.7018V2.4548L14.2546 3.03292ZM13.6648 17.201L5.98652 21.6608V10.2556L13.6648 5.79695V17.201Z" fill="white"/>
</svg>
