<svg width="24" height="25" viewBox="0 0 24 25" fill="none" xmlns="http://www.w3.org/2000/svg">
<path d="M23.944 16.657C23.8649 16.4464 23.7066 16.2885 23.5219 16.1833L16.9011 13.0252C16.7692 12.9725 16.6109 12.9463 16.479 12.9463L13.9995 13.1306V14.7887L16.3734 14.6044L22.0446 17.3151L19.9871 21.5523L9.35688 23.3154L1.89199 19.6835L3.6593 15.6042L9.38326 15.1305V13.4725L3.02623 13.9725C2.70976 13.9988 2.44592 14.1831 2.34046 14.4726L0.0719773 19.7362C-0.112756 20.1309 0.0719773 20.6047 0.467568 20.8153L8.88206 24.9209C8.98749 24.9735 9.11941 24.9998 9.25134 24.9998H9.38326L20.7257 23.1049C20.9895 23.0522 21.2269 22.8943 21.3323 22.6575L23.9173 17.2887C24.0227 17.0781 24.0227 16.8411 23.9436 16.657L23.944 16.657Z" fill="white"/>
<path d="M19.9598 0.945469C19.7487 0.78759 19.4851 0.734902 19.2475 0.78759C17.9023 1.12978 16.9262 0.840277 15.7921 0.498083C14.6052 0.155893 13.2597 -0.238819 11.4925 0.182324C11.1232 0.261264 10.8594 0.603454 10.8594 0.971909V17.5522C10.8594 17.9996 11.2287 18.368 11.677 18.368C12.1254 18.368 12.4947 17.9996 12.4947 17.5522L12.4949 7.49876C13.5236 7.36713 14.3678 7.63039 15.3174 7.89345C16.1351 8.13027 17.0318 8.39354 18.0606 8.39354C18.5353 8.39354 19.063 8.34085 19.6168 8.20923C19.9861 8.13029 20.2499 7.7881 20.2499 7.41964V1.62969C20.2762 1.34019 20.1708 1.07711 19.9598 0.945474L19.9598 0.945469Z" fill="white"/>
</svg>
