<svg width="24" height="25" viewBox="0 0 24 25" fill="none" xmlns="http://www.w3.org/2000/svg">
<path d="M15.4252 15.1375C15.4252 13.259 13.889 11.7358 11.9939 11.7358C10.0987 11.7358 8.5625 13.2588 8.5625 15.1375C8.5625 17.0162 10.0987 18.5391 11.9939 18.5391C13.8887 18.5391 15.4252 17.0162 15.4252 15.1375ZM12.9799 16.278C12.9213 16.4055 12.8375 16.5156 12.7312 16.605C12.6278 16.6919 12.5045 16.759 12.3643 16.8047L12.2635 16.8376V17.1344C12.2635 17.2819 12.1424 17.4017 11.9939 17.4017C11.8451 17.4017 11.7242 17.2817 11.7242 17.1344V16.8676L11.6063 16.8441L11.5961 16.8421C11.5005 16.8221 11.4135 16.7978 11.3378 16.7696C11.2604 16.7408 11.1966 16.7122 11.142 16.6816C11.0796 16.6467 11.0391 16.6178 11.0101 16.5877C10.9774 16.5534 10.9533 16.5129 10.9385 16.4676C10.9258 16.4282 10.9194 16.3839 10.9194 16.3314C10.9194 16.2949 10.9217 16.2645 10.9267 16.2382C10.9324 16.2071 10.941 16.1805 10.9528 16.1569C10.9737 16.1152 11.0048 16.0851 11.0448 16.0673C11.0725 16.0549 11.1018 16.0486 11.1323 16.0486C11.2025 16.0486 11.2642 16.0848 11.3104 16.1164C11.3458 16.1407 11.3939 16.1684 11.4535 16.1985C11.5109 16.2276 11.5822 16.2555 11.6654 16.2812C11.7419 16.3051 11.8346 16.317 11.9405 16.317C12.0232 16.317 12.0995 16.306 12.1669 16.2843C12.2319 16.2636 12.2855 16.235 12.3314 16.1972C12.3739 16.1618 12.4075 16.1173 12.4316 16.0648C12.4561 16.0112 12.4684 15.9477 12.4684 15.8756C12.4684 15.807 12.4543 15.7489 12.4266 15.7031C12.3936 15.6493 12.3514 15.6032 12.2969 15.562C12.2362 15.516 12.1658 15.4735 12.0874 15.4354C12.0052 15.3953 11.9159 15.353 11.8226 15.3093C11.7283 15.2656 11.6349 15.2174 11.5445 15.1661C11.4473 15.1107 11.359 15.0449 11.282 14.9704C11.2011 14.8923 11.1352 14.7993 11.0859 14.6943C11.0353 14.5862 11.0096 14.4586 11.0096 14.3149C11.0096 14.1748 11.036 14.0465 11.0877 13.933C11.14 13.8188 11.2147 13.7204 11.3099 13.6405C11.3983 13.5661 11.5041 13.508 11.6243 13.4673L11.7235 13.4337V13.1412C11.7235 12.9937 11.8446 12.8739 11.9932 12.8739C12.1419 12.8739 12.2628 12.994 12.2628 13.1412V13.4164L12.3734 13.4441C12.4141 13.4542 12.4536 13.4657 12.4911 13.4783C12.5592 13.5013 12.6212 13.5274 12.6751 13.5558C12.7389 13.5896 12.7777 13.6155 12.8045 13.6425C12.8307 13.6688 12.8459 13.6877 12.857 13.7071C12.8663 13.7238 12.8741 13.7425 12.8804 13.7641C12.8861 13.7837 12.89 13.8044 12.8927 13.8283C12.8949 13.8485 12.8959 13.8719 12.8959 13.8996C12.8959 13.9264 12.8943 13.9521 12.8909 13.9758C12.8865 14.0044 12.8802 14.0287 12.8709 14.0516C12.8572 14.0852 12.8386 14.112 12.8139 14.1336C12.7802 14.1629 12.7373 14.1789 12.6928 14.1789C12.6312 14.1789 12.5749 14.1478 12.5329 14.121C12.5002 14.1001 12.4579 14.076 12.407 14.0492C12.3602 14.0246 12.3028 14.0019 12.2362 13.9814C12.1747 13.9625 12.102 13.953 12.0202 13.953C11.9425 13.953 11.8753 13.9629 11.8203 13.9827C11.7683 14.0014 11.7258 14.0262 11.694 14.0561C11.6627 14.0856 11.6397 14.1192 11.624 14.1586C11.6075 14.2007 11.5991 14.246 11.5991 14.2933C11.5991 14.3633 11.6127 14.4196 11.6411 14.4658C11.6738 14.5193 11.7167 14.5662 11.7721 14.6083C11.8335 14.6549 11.9043 14.6979 11.9832 14.7358C12.0697 14.7774 12.1594 14.82 12.2498 14.8619C12.3432 14.9053 12.4366 14.9528 12.5276 15.0033C12.626 15.0578 12.7155 15.1233 12.7934 15.1981C12.8752 15.2764 12.9417 15.369 12.991 15.473C13.0419 15.5806 13.0676 15.7074 13.0676 15.8493C13.0678 16.0067 13.0383 16.151 12.9799 16.278L12.9799 16.278Z" fill="white"/>
<path d="M23.4301 22.7847H0.569922C0.255775 22.7847 0 23.038 0 23.3497V24.4348C0 24.7462 0.255543 24.9998 0.569922 24.9998H23.4301C23.7442 24.9998 24 24.7465 24 24.4348V23.3497C24 23.038 23.7445 22.7847 23.4301 22.7847Z" fill="white"/>
<path d="M23.5326 4.05019L12.3956 0.0596763C12.2881 0.0211697 12.1498 0 12.006 0C11.8625 0 11.7244 0.0211675 11.6169 0.0594458L0.467705 4.05019C0.201032 4.14566 0 4.4294 0 4.71042V6.92557C0 7.237 0.255543 7.49056 0.569922 7.49056H23.4301C23.7442 7.49056 24 7.23723 24 6.92557L23.9998 4.71042C23.9998 4.42962 23.799 4.14566 23.5323 4.05019H23.5326Z" fill="white"/>
<path d="M2.11337 22.3016H21.8799V21.4331C21.8799 21.1214 21.6244 20.8677 21.31 20.8677H2.6832C2.36906 20.8677 2.11328 21.1212 2.11328 21.4331L2.11337 22.3016Z" fill="white"/>
<path d="M21.8798 8.84264V7.97412H2.11328V8.84264C2.11328 9.15429 2.36882 9.40804 2.6832 9.40804H21.31C21.6241 9.40804 21.8799 9.1543 21.8799 8.84264H21.8798Z" fill="white"/>
<path d="M3.10156 20.3834H7.43902L7.00993 9.8916H3.53066L3.10156 20.3834Z" fill="white"/>
<path d="M16.5625 20.3834H20.8997L20.4706 9.8916H16.9916L16.5625 20.3834Z" fill="white"/>
<path d="M13.8137 11.6906L13.7401 9.8916H10.2611L10.1875 11.6906C10.7406 11.4039 11.3587 11.2517 12.0006 11.2517C12.6426 11.2517 13.2606 11.4039 13.8138 11.6906H13.8137Z" fill="white"/>
<path d="M9.90808 18.4272L9.82812 20.3834H14.1653L14.0854 18.4272C13.466 18.8155 12.7475 19.0233 11.9967 19.0233C11.246 19.0231 10.5275 18.8152 9.90808 18.4272V18.4272Z" fill="white"/>
</svg>
