<svg width="26" height="25" viewBox="0 0 26 25" fill="none" xmlns="http://www.w3.org/2000/svg">
<path d="M13 0.130375C6.16871 0.130375 0.630208 5.66883 0.630208 12.5001C0.630208 19.2243 5.99758 24.6921 12.6814 24.8619C9.41262 24.6956 6.8151 21.9927 6.8151 18.6849C6.8151 15.2682 9.58309 12.5001 13 12.5001C16.4143 12.5001 19.1849 9.72953 19.1849 6.31522C19.1849 2.89854 16.4143 0.130375 13 0.130375V0.130375ZM13 9.21838C11.3873 9.21838 10.0801 7.91105 10.0801 6.29834C10.0801 4.68619 11.3871 3.37886 13 3.37886C14.6127 3.37886 15.9199 4.68619 15.9199 6.29834C15.9199 7.91142 14.6127 9.21838 13 9.21838ZM13 0.130375V0.000130207C6.09663 0.000130207 0.5 5.59672 0.5 12.5C0.5 19.2955 5.9241 24.8209 12.6782 24.992L12.688 24.7319C9.48837 24.5693 6.94489 21.923 6.94535 18.6847C6.94535 17.0119 7.62271 15.4991 8.71828 14.4032C9.81435 13.3075 11.3272 12.6301 13 12.6301C16.4866 12.6299 19.3151 9.80145 19.3151 6.31505C19.3151 2.82643 16.4866 0 13 0V0.260489C14.6719 0.260489 16.1845 0.937846 17.2808 2.03359C18.3769 3.12965 19.0548 4.64248 19.0548 6.31508C19.0548 7.98662 18.3769 9.49958 17.2808 10.5959C16.1846 11.6919 14.6716 12.3697 13 12.3697C9.5112 12.3697 6.68489 15.1962 6.68489 18.6848C6.68489 22.0624 9.337 24.8222 12.6749 24.9915L12.6815 24.8616L12.6849 24.7313C6.07174 24.5635 0.760174 19.1533 0.760174 12.4997C0.760174 9.11975 2.13001 6.06053 4.34527 3.84515C6.56035 1.62991 9.61964 0.26008 12.9999 0.26008L13 0.130375ZM13 9.21838V9.08813C12.2293 9.08813 11.5326 8.77624 11.0272 8.2709C10.5223 7.76592 10.2104 7.06908 10.2104 6.29816C10.2104 5.52761 10.5223 4.83096 11.0272 4.32599C11.5324 3.82102 12.2291 3.50875 13 3.50875C13.7707 3.50875 14.4674 3.82064 14.9724 4.32599C15.4773 4.83115 15.7892 5.52761 15.7896 6.29816C15.7894 7.0689 15.4777 7.76588 14.9724 8.2709C14.4672 8.77605 13.7707 9.08813 13 9.08813V9.34862C14.6848 9.34862 16.0497 7.98335 16.0499 6.29833C16.0498 4.61424 14.6848 3.24897 13 3.24897C11.3151 3.24897 9.95005 4.61424 9.95005 6.2987C9.95005 7.98349 11.3151 9.34899 13 9.34899V9.21838ZM13 24.8698C12.8932 24.8698 12.7873 24.8668 12.6816 24.8619C12.7878 24.8643 12.8932 24.8698 13 24.8698ZM13 24.7395V25C12.8908 25 12.7827 24.9971 12.6752 24.992L12.6846 24.7319C12.7933 24.7341 12.8974 24.7395 13 24.7395V24.8698V24.7395V25C12.8888 25 12.7824 24.9946 12.6785 24.9922L12.6815 24.8619L12.6877 24.7321C12.7915 24.7366 12.8955 24.7395 13 24.7395V24.8698L13 24.7395ZM9.95005 6.29891C9.95005 4.61444 11.3151 3.24917 13 3.24917C14.6848 3.24917 16.0497 4.61444 16.0499 6.29891C16.0498 7.98356 14.6848 9.34883 13 9.34883C11.3151 9.34883 9.95005 7.98356 9.95005 6.29891H10.2105C10.2105 7.06964 10.5224 7.76662 11.0274 8.27164C11.5326 8.77661 12.2292 9.08888 13.0002 9.08888C13.7709 9.08888 14.4676 8.77698 14.9725 8.27164C15.4775 7.76648 15.7894 7.06983 15.7898 6.29891C15.7896 5.52836 15.4779 4.8317 14.9725 4.32673C14.4672 3.82176 13.7707 3.5095 13 3.5095C12.2292 3.5095 11.5326 3.82139 11.0272 4.32673C10.5223 4.8317 10.2104 5.52836 10.2104 6.29891H9.95005ZM13 0.130337V0.260582C14.6719 0.260582 16.1845 0.937939 17.2808 2.03368C18.3769 3.12975 19.0548 4.64257 19.0548 6.31517C19.0548 7.98671 18.3769 9.49967 17.2808 10.596C16.1846 11.692 14.6716 12.3698 13 12.3698C9.5112 12.3698 6.68489 15.1963 6.68489 18.6849C6.68489 19.1448 6.73485 19.5953 6.8304 20.0267L6.95755 19.9989L6.82949 20.0222C6.84457 20.1043 6.86382 20.1849 6.8858 20.2647L7.01132 20.2303L6.88471 20.2608C6.90632 20.3502 6.93048 20.4367 6.95682 20.5228L6.957 20.5241C6.97317 20.5749 6.98988 20.6281 7.01005 20.6832L7.13248 20.6387L7.00696 20.673C7.02331 20.7324 7.04347 20.7847 7.06164 20.8347L7.18407 20.7902L7.06036 20.8314C7.08997 20.9202 7.12412 21.0056 7.16045 21.0877L7.2798 21.0354L7.15863 21.0835C7.19006 21.1633 7.22366 21.2403 7.25999 21.3171L7.37789 21.2617L7.25854 21.3135L7.27489 21.3509L7.27507 21.3522L7.27598 21.354C7.30941 21.4249 7.34519 21.4999 7.38516 21.5716L7.49923 21.5086L7.37807 21.5562C7.39133 21.5903 7.40677 21.6167 7.41785 21.6372L7.53193 21.5742L7.41676 21.6347C7.44019 21.6795 7.4649 21.726 7.49305 21.7727L7.60422 21.705L7.48887 21.7651C7.51812 21.8214 7.55009 21.8784 7.58569 21.9337L7.69541 21.8634L7.58115 21.9257C7.5955 21.9517 7.61258 21.9843 7.63982 22.0183L7.74246 21.9378L7.62965 22.0032C7.66671 22.067 7.70649 22.1289 7.75099 22.1911L7.85671 22.1153L7.74972 22.1892L7.79659 22.257L7.90358 22.1831L7.79368 22.2528C7.83382 22.316 7.87833 22.3773 7.92356 22.437L8.02729 22.3582L7.92193 22.4359L7.9688 22.499L8.07325 22.4214L7.96643 22.4959C8.00167 22.5464 8.03928 22.594 8.0787 22.6407L8.17824 22.5567L8.07633 22.6379C8.12447 22.6984 8.17497 22.7582 8.22729 22.8176L8.32502 22.7317L8.22293 22.8127L8.23238 22.8245L8.23419 22.8268L8.23601 22.8288C8.29795 22.9002 8.36262 22.972 8.43001 23.0419L8.52356 22.9513L8.4282 23.0401C8.49559 23.1126 8.56552 23.1823 8.63764 23.2497L8.63782 23.2499C8.70758 23.3148 8.77878 23.3814 8.85344 23.4465C8.92683 23.5102 9.00076 23.5725 9.07996 23.635L9.16062 23.5327L9.07106 23.6272L9.07342 23.6296L9.07778 23.6337L9.08251 23.6374C9.15226 23.6922 9.22528 23.7467 9.29758 23.8007L9.2994 23.8019L9.339 23.829L9.41275 23.7217L9.33664 23.8272C9.4053 23.8766 9.47723 23.9275 9.55062 23.9738L9.57042 23.9863L9.63909 23.8757L9.56697 23.984C9.6469 24.037 9.72574 24.0853 9.80621 24.1324L9.80548 24.1318C9.88941 24.1821 9.97605 24.2303 10.0649 24.2759L10.1245 24.1602L10.0572 24.2717L10.0691 24.2788L10.0714 24.28L10.0743 24.2817C10.1602 24.3284 10.2462 24.3689 10.3301 24.4085C10.4222 24.4519 10.5127 24.49 10.6015 24.5275C10.6932 24.5658 10.7817 24.5994 10.8741 24.6326L10.8752 24.6328C10.9617 24.663 11.0498 24.694 11.1403 24.7211L11.1771 24.5965L11.1386 24.7209C11.2318 24.7498 11.3254 24.7758 11.4209 24.8001L11.4198 24.7999C11.5225 24.8264 11.6251 24.8499 11.7272 24.871C11.8293 24.8926 11.9326 24.9116 12.0391 24.9264L12.0571 24.7974L12.0367 24.926C12.1412 24.9423 12.2471 24.9571 12.3561 24.9667L12.3679 24.837L12.3533 24.9663C12.4621 24.9783 12.567 24.9854 12.6745 24.9923H12.6768C12.7837 24.9976 12.8908 24.9999 13 24.9999C19.9034 24.9999 25.5 19.4038 25.5 12.5C25.5 5.59671 19.9034 0.000124708 13 0.000124708V0.260614V0.130369V0.260614C16.38 0.260614 19.4393 1.63044 21.6547 3.84569C23.8697 6.06112 25.2398 9.12001 25.2398 12.5003C25.2398 15.8805 23.8699 18.9395 21.6547 21.1549C19.4396 23.3699 16.3803 24.7398 13 24.7398C12.8945 24.7398 12.7915 24.7374 12.6885 24.733L12.6825 24.8629L12.6908 24.733C12.5835 24.7263 12.4832 24.7194 12.3817 24.708L12.3799 24.7078H12.3788C12.2778 24.6987 12.178 24.6851 12.0769 24.6693H12.0756L12.0745 24.6691C11.9759 24.6553 11.8783 24.6373 11.7802 24.6168C11.6816 24.5963 11.5831 24.5736 11.4848 24.5481L11.4838 24.5479C11.3924 24.5252 11.3041 24.5004 11.2153 24.4729L11.214 24.4724C11.1317 24.4479 11.0471 24.4184 10.961 24.3883L10.9621 24.3885C10.8721 24.3561 10.788 24.3241 10.7019 24.2882C10.6136 24.2508 10.5266 24.2143 10.4413 24.1739C10.3573 24.1343 10.2754 24.0955 10.1978 24.0537L10.1359 24.1679L10.2031 24.0562L10.1913 24.0491L10.1873 24.0468L10.1833 24.0448C10.0997 24.0021 10.018 23.9565 9.93881 23.9091L9.93808 23.9085C9.85961 23.8622 9.78476 23.8166 9.71065 23.7676L9.70902 23.7663L9.68849 23.7536L9.68958 23.7543C9.62291 23.7118 9.55498 23.6642 9.48795 23.6163L9.48686 23.6152L9.44835 23.5886L9.3746 23.696L9.45217 23.5916C9.38023 23.5381 9.30903 23.4847 9.24308 23.433L9.16243 23.5352L9.25199 23.4408L9.24962 23.4384L9.24545 23.4344L9.24054 23.4304C9.16552 23.371 9.09504 23.312 9.02365 23.25C8.95389 23.1894 8.88486 23.1247 8.81457 23.0595L8.81057 23.0555L8.81475 23.0597C8.74699 22.9965 8.68141 22.9307 8.6182 22.8628L8.61765 22.8622L8.61656 22.861C8.55335 22.7956 8.49177 22.7274 8.43219 22.6586L8.33373 22.7438L8.43582 22.6628L8.42637 22.651L8.42438 22.6481L8.42238 22.6457C8.37242 22.5887 8.32465 22.532 8.27942 22.4757L8.27833 22.474L8.27706 22.4728C8.24163 22.4308 8.20912 22.3894 8.17933 22.3471L8.17878 22.346L8.13028 22.2809L8.12864 22.2786L8.12937 22.2797C8.08614 22.2228 8.04635 22.1674 8.01184 22.1138L8.01057 22.1118L7.96207 22.0417L7.96098 22.0401L7.9608 22.0399C7.92156 21.9847 7.88632 21.9302 7.85326 21.873L7.84854 21.8653L7.84272 21.8581C7.83255 21.845 7.82183 21.8268 7.80803 21.8012L7.80603 21.797L7.80367 21.793C7.77351 21.7456 7.74481 21.6953 7.71829 21.6443L7.71648 21.6408L7.71412 21.6366C7.69123 21.5988 7.66907 21.5569 7.64563 21.5127L7.64509 21.5115L7.64436 21.5102L7.61911 21.4604L7.61602 21.4526L7.61184 21.445C7.5766 21.3818 7.54281 21.3118 7.51084 21.2432L7.39295 21.2984L7.51229 21.2466L7.49595 21.2092L7.49522 21.2068L7.49467 21.2056C7.46052 21.1331 7.4291 21.061 7.39967 20.9865L7.39858 20.9841L7.39785 20.9821C7.36425 20.9057 7.333 20.8272 7.30648 20.7484L7.30576 20.746L7.30558 20.7449C7.28632 20.6922 7.26906 20.6465 7.25744 20.6036L7.25653 20.5992L7.25471 20.5943C7.23727 20.5464 7.22165 20.4966 7.2053 20.4454L7.08141 20.4846L7.20585 20.4466C7.1806 20.3645 7.15789 20.2832 7.13791 20.2L7.13736 20.198L7.13718 20.1961C7.11666 20.1217 7.09922 20.0483 7.08614 19.9762L7.08559 19.9736L7.08505 19.9713C6.99368 19.558 6.94572 19.1262 6.94572 18.6854C6.94572 17.0125 7.62308 15.4998 8.71864 14.4039C9.81435 13.308 11.3272 12.6306 13 12.6306C16.4866 12.6304 19.3151 9.80193 19.3151 6.31554C19.3151 2.82691 16.4866 0.000482288 13 0.000482288V0.260971L13 0.130337ZM13 21.6048V21.4745C12.2293 21.4745 11.5326 21.1626 11.0272 20.6577C10.5223 20.1525 10.2104 19.4558 10.2104 18.6849C10.2104 17.9142 10.5223 17.2167 11.0272 16.7113C11.5324 16.2058 12.2291 15.8931 13 15.8931C13.7707 15.8931 14.4674 16.2056 14.9724 16.7113C15.4773 17.217 15.7896 17.9142 15.7896 18.6849C15.7894 19.4557 15.4777 20.1523 14.9724 20.6577C14.4674 21.1623 13.7707 21.4745 13 21.4745V21.735C14.6848 21.735 16.0497 20.3699 16.0499 18.6851C16.0498 17.0001 14.6852 15.6326 13 15.6326C11.3152 15.6326 9.95005 17.0001 9.95005 18.6849C9.95005 20.3697 11.3151 21.7348 13 21.7348V21.6048ZM15.9199 18.6849C15.9199 20.2976 14.6129 21.6048 13 21.6048C11.3873 21.6048 10.0801 20.2976 10.0801 18.6849C10.0801 17.0722 11.3873 15.7629 13 15.7629C14.6127 15.7629 15.9199 17.0722 15.9199 18.6849ZM16.0499 18.6849C16.0497 20.3697 14.6848 21.7348 13 21.7348C11.3151 21.7348 9.95005 20.3698 9.95005 18.6849C9.95005 17.0001 11.3151 15.6326 13 15.6326C14.6852 15.6326 16.0497 17.0001 16.0499 18.6849H15.7894C15.7894 17.9142 15.4775 17.2166 14.9722 16.7113C14.4672 16.2058 13.7707 15.893 13 15.893C12.2293 15.893 11.5326 16.2054 11.0273 16.7111C10.5223 17.2166 10.2104 17.914 10.2104 18.6847C10.2104 19.4555 10.5223 20.1521 11.0273 20.6575C11.5324 21.1621 12.2291 21.4743 13 21.4743C13.7707 21.4743 14.4674 21.1624 14.9724 20.6575C15.4774 20.1523 15.7893 19.4557 15.7896 18.6847H15.9199L16.0499 18.6849ZM16.0499 6.29895C16.0497 7.9836 14.6848 9.34887 13 9.34887C11.3151 9.34887 9.95005 7.9836 9.95005 6.29858C9.95005 4.61412 11.3151 3.24885 13 3.24885C14.6848 3.24885 16.0497 4.61449 16.0499 6.29895H15.7894C15.7893 5.52841 15.4775 4.83175 14.9722 4.32678C14.4672 3.82181 13.7707 3.50954 13 3.50954C12.2293 3.50954 11.5326 3.82143 11.0273 4.32678C10.5223 4.83175 10.2104 5.52841 10.2104 6.29895C10.2104 7.06969 10.5223 7.76667 11.0273 8.27169C11.5324 8.77666 12.2291 9.08892 13 9.08892C13.7707 9.08892 14.4674 8.77703 14.9724 8.27169C15.4774 7.76653 15.7893 7.06987 15.7896 6.29895H16.0499Z" fill="white"/>
</svg>
