<svg width="14" height="25" viewBox="0 0 14 25" fill="none" xmlns="http://www.w3.org/2000/svg">
<path d="M2.83525 18.9474C2.6619 19.0948 2.56289 19.3077 2.5638 19.5313H2.3629C2.14905 19.5313 1.94383 19.6136 1.79263 19.76C1.64142 19.9065 1.55645 20.1053 1.55645 20.3125V21.2891C1.3426 21.2891 1.13738 21.3714 0.986175 21.5179C0.834968 21.6643 0.75 21.8631 0.75 22.0703V24.2188C0.75 24.4259 0.834968 24.6247 0.986175 24.7712C1.13738 24.9177 1.3426 25 1.55645 25H12.4435C12.6574 25 12.8626 24.9177 13.0138 24.7712C13.165 24.6247 13.25 24.4259 13.25 24.2188V22.0703C13.25 21.8631 13.165 21.6643 13.0138 21.5179C12.8626 21.3714 12.6574 21.2891 12.4435 21.2891V20.3125C12.4435 20.1053 12.3586 19.9065 12.2074 19.76C12.0562 19.6136 11.8509 19.5313 11.6371 19.5313H11.4335C11.4342 19.3063 11.3345 19.092 11.1601 18.9434C11.1548 18.9387 10.1677 18.0586 9.62131 16.1722H9.62149C9.39233 15.357 9.27263 14.5166 9.26507 13.6719H9.41934C9.63319 13.6719 9.83841 13.5896 9.98961 13.4431C10.1408 13.2966 10.2258 13.0978 10.2258 12.8906V12.1094C10.2256 11.9071 10.1442 11.7128 9.99879 11.5676C9.85353 11.4221 9.65551 11.3374 9.44686 11.3307C9.70427 9.83172 10.1374 8.36583 10.7377 6.96186C10.8501 6.72016 10.8283 6.43976 10.68 6.21704C10.5314 5.99417 10.2765 5.85955 10.0029 5.85937H9.62096V4.6875C9.62096 4.47178 9.44041 4.29687 9.21773 4.29687H8.41128V3.71094H8.6129C8.82675 3.71094 9.03196 3.62862 9.18317 3.48214C9.33438 3.33566 9.41935 3.13686 9.41935 2.92969V1.75781C9.41935 1.55064 9.33438 1.35184 9.18317 1.20536C9.03196 1.05887 8.82675 0.976562 8.6129 0.976562H8.41128V0.78125C8.41128 0.57408 8.32631 0.375277 8.17511 0.228795C8.0239 0.0823124 7.81868 0 7.60483 0H6.39515C6.1813 0 5.97608 0.0823124 5.82488 0.228795C5.67367 0.375277 5.5887 0.57408 5.5887 0.78125V0.976562H5.38709C5.17324 0.976562 4.96802 1.05887 4.81681 1.20536C4.6656 1.35184 4.58064 1.55064 4.58064 1.75781V2.92969C4.58064 3.13686 4.6656 3.33566 4.81681 3.48214C4.96802 3.62862 5.17324 3.71094 5.38709 3.71094H5.5887V4.29687H4.78225C4.55958 4.29687 4.37902 4.47178 4.37902 4.6875V5.85937H3.99812C3.72972 5.85937 3.47877 5.98876 3.329 6.20448C3.17905 6.4202 3.14989 6.69399 3.25087 6.93479C3.85696 8.34716 4.29387 9.82211 4.55327 11.3307C4.34446 11.3374 4.14644 11.4221 4.00119 11.5675C3.85575 11.7128 3.77438 11.9071 3.7742 12.1094V12.8906C3.7742 13.0978 3.85917 13.2966 4.01037 13.4431C4.16158 13.5896 4.3668 13.6719 4.58065 13.6719H4.73492C4.72736 14.5166 4.60748 15.357 4.3785 16.1722C3.83232 18.0584 2.84518 18.9387 2.83527 18.9474L2.83525 18.9474ZM5.18548 5.07823H8.81452V5.85948H5.18548V5.07823ZM4.58065 12.8907V12.1095H9.41936V12.8907H4.58065ZM10.629 20.3126H11.6371V21.2892H2.3629V20.3126H10.629Z" fill="white"/>
</svg>
