<svg width="24" height="25" viewBox="0 0 24 25" fill="none" xmlns="http://www.w3.org/2000/svg">
<path d="M17 3.35968C17.2626 3.09703 17.5744 2.88869 17.9176 2.74655C18.2608 2.60441 18.6286 2.53125 19 2.53125C19.3714 2.53125 19.7392 2.60441 20.0824 2.74655C20.4256 2.88869 20.7374 3.09703 21 3.35968C21.2626 3.62232 21.471 3.93412 21.6131 4.27728C21.7553 4.62045 21.8284 4.98824 21.8284 5.35968C21.8284 5.73111 21.7553 6.09891 21.6131 6.44207C21.471 6.78523 21.2626 7.09703 21 7.35968L7.5 20.8597L2 22.3597L3.5 16.8597L17 3.35968Z" stroke="white" stroke-linecap="round" stroke-linejoin="round"/>
</svg>
