<svg width="24" height="25" viewBox="0 0 24 25" fill="none" xmlns="http://www.w3.org/2000/svg">
<path d="M11 2.35938L14 5.35938M14 5.35938L11 8.35938M14 5.35938H6.8C5.11984 5.35938 4.27976 5.35937 3.63803 5.68636C3.07354 5.97398 2.6146 6.43292 2.32698 6.9974C2 7.63914 2 8.47922 2 10.1594V15.8594C2 16.3238 2 16.556 2.02567 16.751C2.2029 18.0972 3.26222 19.1565 4.60842 19.3337C4.80337 19.3594 5.03558 19.3594 5.5 19.3594M10 19.3594H17.2C18.8802 19.3594 19.7202 19.3594 20.362 19.0324C20.9265 18.7448 21.3854 18.2858 21.673 17.7213C22 17.0796 22 16.2395 22 14.5594V8.85938C22 8.39495 22 8.16274 21.9743 7.9678C21.7971 6.6216 20.7378 5.56227 19.3916 5.38504C19.1966 5.35937 18.9644 5.35938 18.5 5.35938M10 19.3594L13 22.3594M10 19.3594L13 16.3594" stroke="white" stroke-linecap="round" stroke-linejoin="round"/>
</svg>
