<?xml version="1.0" encoding="utf-8"?>
<!-- Generator: Adobe Illustrator 26.2.1, SVG Export Plug-In . SVG Version: 6.00 Build 0)  -->
<svg version="1.1" id="Calque_1" xmlns="http://www.w3.org/2000/svg" xmlns:xlink="http://www.w3.org/1999/xlink" x="0px" y="0px"
	 viewBox="0 0 32 32" style="enable-background:new 0 0 32 32;" xml:space="preserve">
<style type="text/css">
	.st0{fill:#FFFFFF;stroke:#FFFFFF;stroke-miterlimit:10;}
</style>
<g id="icomoon-ignore">
</g>
<path class="st0" d="M7.7,14.2c0,5.5,4.5,10,10,10c5.5,0,10-4.5,10-10s-4.5-10-10-10C12.1,4.2,7.7,8.7,7.7,14.2z M17.6,5.2
	c4.9,0,8.9,4,8.9,8.9s-4,8.9-8.9,8.9c-4.9,0-8.9-4-8.9-8.9S12.7,5.2,17.6,5.2z"/>
<path class="st0" d="M23.6,25.9l0.5,1l0.9-0.5l-1.4-2.9L22.6,24l0.5,0.9c-1.7,0.9-3.6,1.3-5.5,1.3c-6.7,0-12.1-5.4-12.1-12.1
	c0-4.5,2.6-8.7,6.6-10.7l0.5,1l0.9-0.5l-1.4-2.9l-0.9,0.5l0.5,1C7.3,4.7,4.5,9.2,4.5,14.2c0,7.1,5.6,12.8,12.6,13.1v1.6
	c-2.4,0.1-4.7,0.8-6.6,2.1h2.2c1.5-0.7,3.2-1,4.9-1c1.7,0,3.4,0.4,4.9,1h2.2c-1.9-1.2-4.2-2-6.6-2.1v-1.6
	C20,27.2,21.9,26.7,23.6,25.9L23.6,25.9z"/>
</svg>
