<svg width="21" height="21" viewBox="0 0 21 21" fill="none" xmlns="http://www.w3.org/2000/svg">
<path d="M0.698129 16.9305C0.248194 17.3804 0 17.979 0 18.6156C0 19.2527 0.247804 19.8517 0.698129 20.3019C1.14867 20.7518 1.74725 21 2.3843 21C3.02093 21 3.61952 20.7522 4.07005 20.3019C4.38777 19.9833 4.60535 19.5899 4.70587 19.1559L6.3127 17.5489L6.3133 17.5483L7.30693 16.5546L8.55297 17.8011C8.64853 17.8967 8.77814 17.9503 8.91316 17.9503C9.04898 17.9503 9.1786 17.8967 9.27415 17.8011L10.4783 16.5961C10.6776 16.3976 10.6776 16.0746 10.4783 15.8753L9.36447 14.7607L20.2628 6.88529C20.3826 6.79855 20.4593 6.66392 20.472 6.51648L20.998 0.555083C21.0113 0.404633 20.9572 0.256388 20.8502 0.149812C20.7436 0.042636 20.5952 -0.0112544 20.4447 0.00196692L14.484 0.527436C14.3362 0.540056 14.2017 0.616984 14.1152 0.736782L6.24003 11.6359L5.12542 10.5216C5.02986 10.4261 4.90045 10.372 4.76463 10.372C4.62941 10.372 4.49979 10.4261 4.40424 10.5216L3.19948 11.7258C3.00055 11.9252 3.00055 12.2479 3.19948 12.447L4.44552 13.6931L1.84445 16.2942C1.41054 16.3946 1.0175 16.6123 0.69856 16.9305L0.698129 16.9305ZM2.3843 19.9803C2.0199 19.9803 1.67755 19.8385 1.4199 19.5805C1.16228 19.3227 1.02004 18.9803 1.02004 18.6161C1.02004 18.2518 1.16187 17.9093 1.4199 17.6518C1.62544 17.4463 1.88606 17.3139 2.17295 17.2692C2.24267 17.2584 2.31398 17.2522 2.3843 17.2522C2.7491 17.2522 3.09146 17.3944 3.34849 17.6517C3.38695 17.6899 3.42261 17.7304 3.45566 17.7723C3.68764 18.0677 3.78961 18.451 3.73111 18.8274C3.68664 19.1143 3.55423 19.3747 3.34849 19.5805C3.09087 19.8381 2.74852 19.9803 2.3843 19.9803L2.3843 19.9803ZM14.8058 1.5233L19.9284 1.07215L19.4771 6.19529L8.63408 14.0301L8.16271 13.5586L17.342 4.37952C17.5414 4.18059 17.5414 3.85744 17.342 3.65814C17.1431 3.45881 16.8206 3.45881 16.6212 3.65814L7.44242 12.8377L6.97085 12.3663L14.8058 1.5233ZM4.7649 11.6039L9.39728 16.2364L8.91368 16.7198L7.66984 15.476C7.66924 15.4748 7.66864 15.4742 7.66804 15.4738L5.52755 13.333C5.52755 13.333 5.52695 13.333 5.52695 13.3324L4.28193 12.0873L4.7649 11.6039ZM6.58568 15.8343L5.95304 16.467L4.53412 15.048L5.16676 14.4154L6.58568 15.8343ZM3.81214 15.7688L5.23107 17.1884L4.62166 17.7976C4.61826 17.7888 4.61505 17.7798 4.61165 17.7706C4.60423 17.752 4.59662 17.7329 4.58861 17.7141C4.57939 17.6921 4.57058 17.669 4.55996 17.6472C4.55195 17.6285 4.54333 17.6095 4.53472 17.5911C4.5239 17.5694 4.51288 17.5472 4.50227 17.5254C4.49305 17.5075 4.48323 17.4895 4.47362 17.4713C4.4616 17.4496 4.44958 17.4284 4.43676 17.4066C4.42634 17.3892 4.41673 17.3721 4.40611 17.3549C4.39229 17.3331 4.37846 17.312 4.36424 17.2906C4.35342 17.2746 4.34301 17.2581 4.33159 17.2421C4.31616 17.2203 4.30033 17.1992 4.28411 17.1772C4.27329 17.1628 4.26227 17.148 4.25085 17.1339C4.23282 17.1103 4.21239 17.0875 4.19316 17.0648C4.18334 17.0534 4.17453 17.0412 4.16391 17.0298C4.13366 16.9961 4.10241 16.9628 4.06996 16.9306C4.04011 16.9007 4.00986 16.8717 3.97901 16.844C3.969 16.8348 3.95798 16.8256 3.94776 16.8164C3.92653 16.798 3.90589 16.7801 3.88466 16.7623C3.87143 16.7519 3.85821 16.7423 3.84539 16.7319C3.82596 16.7164 3.80633 16.7016 3.7863 16.6868C3.77187 16.6764 3.75765 16.667 3.74343 16.6569C3.7242 16.6431 3.70376 16.6293 3.68453 16.6167C3.66951 16.6068 3.65428 16.5972 3.63906 16.588C3.61923 16.5754 3.59919 16.5634 3.57896 16.5518C3.56353 16.5429 3.54831 16.5339 3.53208 16.5247C3.51205 16.5139 3.49121 16.5031 3.47058 16.4929C3.45456 16.4848 3.43933 16.4762 3.4231 16.4688C3.40127 16.4584 3.37943 16.4484 3.3576 16.4386C3.34217 16.4318 3.32695 16.4247 3.31112 16.4179C3.28789 16.4085 3.26425 16.3993 3.24021 16.3899C3.22819 16.3853 3.21697 16.3805 3.20495 16.3761L3.81214 15.7688Z" fill="#4AFF3A"/>
</svg>
