<svg width="21" height="21" viewBox="0 0 21 21" fill="none" xmlns="http://www.w3.org/2000/svg">
<path d="M10.2651 15.6576C10.2624 15.6643 10.2578 15.67 10.2562 15.6774L10.0206 16.6533C10.0105 16.6959 10.0176 16.7405 10.0411 16.7786C10.0646 16.8168 10.1015 16.8438 10.1448 16.8541L11.2875 17.1278L11.601 15.828L10.595 15.587C9.64993 12.405 10.1697 9.10025 10.3395 8.21401C10.8565 8.49501 11.6776 8.75174 12.7229 8.4463L13.0832 4.46362C13.1654 3.55483 13.389 2.72775 13.7486 2.00407C14.2313 1.03298 14.859 0.33638 15.5056 0.00832003C15.4073 0.00322476 15.3088 0.000976562 15.2105 0.000976562C14.6737 0.000976562 14.1382 0.0741081 13.6213 0.219777C12.1023 0.647778 10.8166 1.7304 10.0935 3.19039C9.61187 4.16329 9.43086 5.31067 9.56994 6.50943L9.64921 7.1916C9.68518 7.50107 9.82815 7.78177 10.042 7.99186C9.91881 8.58095 9.24277 12.1829 10.2662 15.658L10.2651 15.6576Z" fill="#9280E6"/>
<path d="M11.861 17.6099L11.312 19.886L12.2917 20.1205L12.8402 17.8446L11.861 17.6099Z" fill="#9280E6"/>
<path d="M13.3302 17.9614L13.167 17.9221L12.6182 20.1981L13.7601 20.4717C13.8484 20.4926 13.941 20.4382 13.9626 20.3486L14.4726 18.235L13.3306 17.9614L13.3302 17.9614Z" fill="#9280E6"/>
<path d="M10.2289 17.2185L9.71894 19.3324C9.7086 19.3749 9.71594 19.4196 9.73902 19.4577C9.76255 19.4959 9.79942 19.5228 9.84273 19.5332L10.9854 19.8068L11.5342 17.5312L10.2288 17.2183L10.2289 17.2185Z" fill="#9280E6"/>
<path d="M19.2044 1.5564C18.7377 1.12541 18.2017 0.773522 17.6212 0.514404C18.0479 1.09947 18.2899 2.00451 18.2769 3.08847C18.2672 3.89518 18.0893 4.73368 17.7482 5.58071L16.2527 9.29119C16.9856 9.9813 17.7671 10.155 18.3448 10.1634C18.0326 11.2993 17.0362 14.3578 14.8794 16.6122L13.8858 16.3742L13.5723 17.674L14.7142 17.9476C14.8042 17.9698 14.8951 17.914 14.917 17.8244L15.1523 16.8485C15.1553 16.8361 15.1536 16.8233 15.1536 16.8106C17.4118 14.4291 18.4153 11.202 18.6982 10.1397C19.0456 10.0739 19.3599 9.8684 19.5633 9.56387L19.945 8.99216C20.6157 7.98745 20.9775 6.88326 20.9924 5.79872C21.0138 4.17119 20.3626 2.62477 19.2048 1.55554L19.2044 1.5564Z" fill="#9280E6"/>
<path d="M2.85828 3.69483L4.07576 6.08125C4.08085 6.0832 4.08879 6.0856 4.09449 6.088C4.13405 6.28237 4.70772 8.97931 6.13712 10.711L6.09576 10.7251L6.34558 11.4639L7.29286 11.142L7.04274 10.4029L6.98204 10.4234C7.07601 8.33833 6.04344 5.89708 5.80876 5.37378L5.34776 2.84798C5.24466 2.28328 5.05913 1.77916 4.79627 1.35009C4.27086 0.493012 3.57637 0.0327846 3.06746 0.204392L3.06581 0.204991H3.06386C2.55522 0.379882 2.28305 1.16907 2.38649 2.17017C2.43819 2.67129 2.5966 3.18458 2.85749 3.69564L2.85828 3.69483ZM5.0668 6.11513C5.30179 6.03286 5.48103 5.89258 5.6099 5.7607C5.95533 6.5905 6.76745 8.75709 6.6438 10.5345V10.5382L6.47655 10.5953C5.21772 9.14074 4.60506 6.80135 4.45805 6.17182C4.63369 6.1919 4.84711 6.18801 5.06694 6.11502L5.0668 6.11513Z" fill="#9280E6"/>
<path d="M5.08311 1.1743C5.36785 1.63917 5.56823 2.18169 5.67865 2.78728L6.15058 5.37482C6.74405 5.48197 7.20428 5.32986 7.51687 5.14927C7.72398 5.8006 8.32254 7.97947 7.86831 10.1222L7.36074 10.2947L7.61086 11.0338L8.29498 10.8012H8.29528C8.32346 10.7915 8.33919 10.7592 8.32945 10.7308L8.17779 10.2827C8.17839 10.28 8.18049 10.278 8.18079 10.2749C8.72523 7.8489 7.96963 5.42744 7.79849 4.92755C7.92138 4.78353 7.99481 4.59859 7.99961 4.40079L8.0107 3.94252C8.02988 3.14856 7.84345 2.4073 7.47224 1.79918C6.9146 0.886357 6.0136 0.253946 5.00022 0.0646527C4.65509 -8.84648e-05 4.30232 -0.0159754 3.95312 0.0159482C4.35266 0.231153 4.74905 0.629176 5.08309 1.17411L5.08311 1.1743Z" fill="#9280E6"/>
<path d="M7.50732 11.4228L7.97189 12.7962L8.65601 12.5636C8.68419 12.5542 8.69992 12.5216 8.69063 12.4935L8.24418 11.1729L7.50761 11.4233L7.50732 11.4228Z" fill="#9280E6"/>
<path d="M14.0485 2.15307C13.7077 2.8393 13.4952 3.62682 13.4171 4.49349L13.0546 8.50418C12.7397 9.34207 11.473 12.9695 11.9002 16.0188L11.6138 17.2061L13.2459 17.5968L13.5269 16.4323C15.441 13.7447 15.9274 9.58255 15.9813 9.06769L17.4369 5.45596C17.7625 4.64791 17.9323 3.85003 17.9414 3.08526C17.9602 1.51183 17.4289 0.364792 16.5876 0.163375C15.7454 -0.0396913 14.7497 0.742765 14.049 2.15341L14.0485 2.15307ZM13.3012 8.8098C13.5251 9.0307 13.8797 9.30225 14.3554 9.4208C14.8532 9.5356 15.3088 9.44088 15.6088 9.34017C15.4605 10.4517 14.882 13.939 13.2614 16.2252L12.2334 15.9791C11.8468 13.2294 12.917 9.88864 13.3012 8.80943V8.8098Z" fill="#9280E6"/>
<path d="M5.77843 10.8323L5.28194 11.0012C3.59208 9.55877 2.7843 7.4361 2.58123 6.83477C2.93131 6.77977 3.36545 6.61656 3.75421 6.18885L2.55921 3.84708C2.27956 3.29919 2.1093 2.74635 2.05325 2.20352C1.98776 1.56766 2.0606 1.01044 2.24733 0.595947C1.95119 0.783576 1.68098 1.0109 1.44676 1.27275C0.756803 2.04108 0.425137 3.09256 0.536204 4.15734C0.610386 4.86664 0.912212 5.5686 1.40901 6.18724L1.6957 6.54407C1.83163 6.71326 2.0254 6.81907 2.23116 6.84724C2.38163 7.32726 3.19927 9.69869 5.1138 11.301L5.1162 11.3024L5.27401 11.7697C5.28045 11.7881 5.29409 11.7976 5.30188 11.8013C5.30967 11.805 5.32466 11.8103 5.34279 11.8043L6.02769 11.5713L5.77786 10.8324L5.77843 10.8323Z" fill="#9280E6"/>
<path d="M6.66455 11.7106L7.12869 13.0839L7.65441 12.9055L7.18985 11.5321L6.66455 11.7106Z" fill="#9280E6"/>
<path d="M5.60986 12.0683L6.05663 13.3896C6.06307 13.4081 6.07671 13.4175 6.0845 13.4213C6.09184 13.4246 6.10728 13.43 6.12586 13.4243L6.81076 13.1912L6.34646 11.8179L5.60986 12.0683Z" fill="#9280E6"/>
</svg>
