<svg width="22" height="21" viewBox="0 0 22 21" fill="none" xmlns="http://www.w3.org/2000/svg">
<path d="M19.134 10.5L20.334 9.3C21.909 7.725 21.909 5.175 20.334 3.525L18.009 1.2C16.434 -0.375 13.884 -0.375 12.234 1.2L11.034 2.4L9.83399 1.2C9.08399 0.45 8.03399 0 6.98398 0C5.85898 0 4.80898 0.45 4.05898 1.2L1.73398 3.525C0.158984 5.1 0.158984 7.65 1.73398 9.3L2.93398 10.5L1.73398 11.7C0.158984 13.275 0.158984 15.825 1.73398 17.475L4.05898 19.8C4.88399 20.625 5.85898 21 6.90899 21C7.95899 21 9.00899 20.625 9.75899 19.8L10.959 18.6L12.159 19.8C12.909 20.55 13.959 21 15.009 21C16.059 21 17.109 20.55 17.859 19.8L20.184 17.475C21.759 15.9 21.759 13.35 20.184 11.7L19.134 10.5ZM2.78398 8.25C1.80898 7.275 1.80898 5.625 2.78398 4.65L5.10898 2.25C5.55898 1.8 6.23398 1.5 6.90899 1.5C7.58399 1.5 8.25899 1.8 8.70899 2.25L9.90899 3.45L3.90898 9.45L2.78398 8.25ZM10.509 17.025L8.78399 18.75C7.80899 19.725 6.15898 19.725 5.18398 18.75L2.78398 16.425C1.80898 15.45 1.80898 13.8 2.78398 12.825L11.559 4.05L13.284 2.25C14.259 1.275 15.909 1.275 16.884 2.25L19.284 4.575C20.259 5.55 20.259 7.2 19.284 8.175L17.559 9.9L10.509 17.025ZM19.284 16.425L16.959 18.75C15.984 19.725 14.334 19.725 13.359 18.75L12.159 17.55L18.159 11.55L19.284 12.75C20.259 13.8 20.259 15.375 19.284 16.425Z" fill="#FF3A3A"/>
<path d="M6.23377 12.9004H6.15877C5.78377 12.8254 5.40877 12.4504 5.48377 12.0754C5.55877 11.7004 5.85877 11.4004 6.30877 11.4004H6.38377C6.75877 11.4754 7.05877 11.8504 7.05877 12.2254C6.90877 12.6004 6.60877 12.9004 6.23377 12.9004Z" fill="#FF3A3A"/>
<path d="M9.45887 12.9004H9.38387C9.00887 12.8254 8.63387 12.4504 8.70887 12.0754C8.78387 11.7004 9.08387 11.4004 9.53387 11.4004H9.60887C9.98387 11.4754 10.2839 11.8504 10.2839 12.2254C10.1339 12.6004 9.83387 12.9004 9.45887 12.9004Z" fill="#FF3A3A"/>
<path d="M12.6088 9.67529H12.5338C12.1588 9.60029 11.7838 9.22529 11.8588 8.85029C11.9338 8.47529 12.3088 8.17529 12.6838 8.17529H12.7588C13.1338 8.25029 13.4338 8.62529 13.4338 9.00029C13.2838 9.45029 12.9838 9.67529 12.6088 9.67529Z" fill="#FF3A3A"/>
<path d="M9.45887 16.0504H9.38387C9.00887 15.9754 8.63387 15.6004 8.70887 15.2254C8.78387 14.8504 9.08387 14.5504 9.53387 14.5504H9.60887C9.98387 14.6254 10.2839 15.0004 10.2839 15.3754C10.1339 15.7504 9.83387 16.0504 9.45887 16.0504Z" fill="#FF3A3A"/>
<path d="M9.45887 9.67529H9.38387C9.00887 9.60029 8.63387 9.22529 8.70887 8.85029C8.78387 8.47529 9.08387 8.17529 9.53387 8.17529H9.60887C9.98387 8.25029 10.2839 8.62529 10.2839 9.00029C10.1339 9.45029 9.83387 9.67529 9.45887 9.67529Z" fill="#FF3A3A"/>
<path d="M12.6088 12.9004H12.5338C12.1588 12.8254 11.7838 12.4504 11.8588 12.0754C11.9338 11.7004 12.3088 11.4004 12.6838 11.4004H12.7588C13.1338 11.4754 13.4338 11.8504 13.4338 12.2254C13.2838 12.6004 12.9838 12.9004 12.6088 12.9004Z" fill="#FF3A3A"/>
<path d="M12.6088 6.52515H12.5338C12.1588 6.45015 11.7838 6.07515 11.8588 5.70015C11.9338 5.32515 12.3088 5.02515 12.6838 5.02515H12.7588C13.1338 5.10015 13.4338 5.47515 13.4338 5.85015C13.2838 6.22515 12.9838 6.52515 12.6088 6.52515Z" fill="#FF3A3A"/>
<path d="M15.7592 9.67529H15.6842C15.3092 9.60029 14.9342 9.22529 15.0092 8.85029C15.0842 8.47529 15.3842 8.17529 15.8342 8.17529H15.9092C16.2842 8.25029 16.5842 8.62529 16.5842 9.00029C16.5092 9.45029 16.1342 9.67529 15.7592 9.67529Z" fill="#FF3A3A"/>
</svg>
