<?xml version="1.0" encoding="utf-8"?>
<!-- Generator: Adobe Illustrator 26.2.1, SVG Export Plug-In . SVG Version: 6.00 Build 0)  -->
<svg version="1.1" id="Capa_1" xmlns="http://www.w3.org/2000/svg" xmlns:xlink="http://www.w3.org/1999/xlink" x="0px" y="0px"
	 viewBox="0 0 18 18" style="enable-background:new 0 0 485.6 485.6;" xml:space="preserve">
<style type="text/css">
	.st0{fill:#FFFFFF;}
</style>
<g>
	<g id="Layer_2_18_">
		<g>
			<path class="st0" d="M12.7,9.3c0.2-0.1,0.7-0.2,0.9-0.8l0.5-1.3l0.2,0.1c0.1,0,0.2,0,0.2-0.1l0.3-0.7c0-0.1,0-0.2-0.1-0.2
				L8.6,4.3c-0.1,0-0.2,0-0.2,0.1L8.1,5.1c0,0.1,0,0.2,0.1,0.2l0.2,0.1L7.9,6.7C7.7,7.3,7.8,7.5,8.1,7.8l1.2,1.4L9.2,9.6
				C8.7,9.7,7.5,10,7.4,10c-0.2,0.1-0.7,0.2-0.9,0.8L6,12l-0.2-0.1c-0.1,0-0.2,0-0.2,0.1l-0.3,0.7c0,0.1,0,0.2,0.1,0.2l6.1,1.9
				c0.1,0,0.2,0,0.2-0.1L12,14c0-0.1,0-0.2-0.1-0.2l-0.2-0.1l0.4-1.1c0.2-0.6,0.1-0.8-0.2-1.2l-1.2-1.4l0.1-0.4
				C11.3,9.6,12.5,9.4,12.7,9.3z M10.1,10.3l1.3,1.5c0.1,0.1,0.2,0.2,0.2,0.2c0,0.1,0,0.2-0.1,0.4l-0.4,1.1l-4.6-1.5L7,11
				c0.1-0.4,0.4-0.4,0.5-0.5c0.1,0,1.3-0.3,2-0.4c0.1,0,0.2-0.1,0.2-0.2L10,9.3c0-0.1,0-0.2-0.1-0.3L8.6,7.5l0,0
				C8.5,7.4,8.4,7.3,8.4,7.3c0-0.1,0-0.2,0.1-0.4L9,5.5L13.5,7L13,8.3c-0.1,0.4-0.4,0.4-0.5,0.5c-0.1,0-1.3,0.3-2,0.4
				c-0.1,0-0.2,0.1-0.2,0.2l-0.2,0.7C10,10.2,10.1,10.3,10.1,10.3z"/>
			<path class="st0" d="M13.7,15.7c-0.1,0.1-0.3,0.1-0.4,0.2c0,0,0,0-0.1,0c0,0,0,0-0.1,0c-0.6,0.3-1.2,0.4-1.9,0.6c0,0,0,0,0,0
				c-0.2,0-0.3,0-0.5,0.1c0,0,0,0,0,0c-0.3,0-0.6,0-0.8,0c-3.3,0-6.1-2-7.1-4.8c0,0,0-0.1,0-0.1C2.6,11,2.4,10.3,2.4,9.5
				c0-0.8,0.1-1.5,0.4-2.3c0,0,0,0,0,0c0,0,0-0.1,0-0.1c0,0,0,0,0-0.1c0.9-2.2,2.8-3.9,5.3-4.5c0,0,0,0,0,0c0,0,0.1,0,0.1,0
				c0,0,0,0,0,0C8.8,2.4,9.4,2.3,10,2.3l0,0.7c0,0.2,0.2,0.3,0.3,0.1l1.6-1.3c0.2-0.1,0.2-0.4,0-0.5l-1.7-1.3
				C10.1-0.1,9.9,0,9.9,0.2L10,1C7.6,1,5.3,1.9,3.6,3.5C3.5,3.6,3.3,3.8,3.2,3.9c0,0,0,0,0,0c0,0,0,0,0,0C1.8,5.4,1.1,7.3,1,9.2
				c0,0,0,0,0,0c0,0.1,0,0.1,0,0.2c0,0.1,0,0.2,0,0.3c0,0,0,0,0,0c0.1,1.8,0.7,3.5,1.9,4.9c0,0,0,0,0,0C3,14.8,3.1,15,3.2,15.1
				c0,0,0,0,0,0c0.1,0.1,0.2,0.3,0.4,0.4c1.3,1.3,3,2.1,4.8,2.4c0,0,0,0,0,0c0,0,0,0,0,0C9,18,9.5,18,10,18c1.3,0,2.6-0.3,3.8-0.8
				c0,0,0.1,0,0.1,0c0,0,0.1,0,0.1,0c0.2-0.1,0.3-0.2,0.5-0.2c0.3-0.2,0.5-0.6,0.3-0.9C14.5,15.6,14.1,15.5,13.7,15.7z"/>
			<path class="st0" d="M16.3,5.5c0.1,0.2,0.4,0.3,0.6,0.3c0.1,0,0.3,0,0.4-0.1c0.3-0.2,0.4-0.6,0.2-1c-0.1-0.1-0.2-0.3-0.3-0.4
				c-0.2-0.3-0.7-0.4-1-0.1c-0.3,0.2-0.4,0.7-0.1,1C16.1,5.3,16.2,5.4,16.3,5.5z"/>
			<path class="st0" d="M17.2,7.3c0,0.1,0.1,0.3,0.1,0.4C17.4,8,17.7,8.2,18,8.2c0.1,0,0.1,0,0.2,0c0.4-0.1,0.6-0.5,0.5-0.8
				c0-0.2-0.1-0.3-0.2-0.5c-0.1-0.4-0.5-0.6-0.9-0.4C17.3,6.5,17.1,6.9,17.2,7.3z"/>
			<path class="st0" d="M16.7,14.1c-0.3-0.2-0.8-0.2-1,0.1c-0.1,0.1-0.2,0.2-0.3,0.3c-0.3,0.3-0.3,0.7,0,1c0.1,0.1,0.3,0.2,0.5,0.2
				c0.2,0,0.4-0.1,0.5-0.2c0.1-0.1,0.3-0.3,0.4-0.4C17.1,14.8,17,14.3,16.7,14.1z"/>
			<path class="st0" d="M18.3,9c-0.4,0-0.7,0.3-0.7,0.7c0,0.1,0,0.3,0,0.4c0,0.4,0.3,0.7,0.7,0.7c0,0,0,0,0.1,0
				c0.4,0,0.7-0.3,0.7-0.6c0-0.2,0-0.3,0-0.5C19,9.4,18.7,9,18.3,9z"/>
			<path class="st0" d="M18,11.7c-0.4-0.1-0.8,0-0.9,0.4c-0.1,0.1-0.1,0.3-0.2,0.4c-0.2,0.3,0,0.8,0.4,0.9c0.1,0,0.2,0.1,0.3,0.1
				c0.3,0,0.5-0.1,0.7-0.4c0.1-0.2,0.1-0.3,0.2-0.5C18.5,12.2,18.3,11.8,18,11.7z"/>
			<path class="st0" d="M15.5,3.6c0.2-0.3,0.2-0.7-0.2-1c-0.1-0.1-0.3-0.2-0.5-0.3c-0.3-0.2-0.8-0.1-1,0.2c-0.2,0.3-0.1,0.7,0.2,0.9
				c0.1,0.1,0.3,0.2,0.4,0.2c0.1,0.1,0.3,0.1,0.4,0.1C15.2,3.9,15.4,3.8,15.5,3.6z"/>
		</g>
	</g>
</g>
</svg>
