<?xml version="1.0" encoding="utf-8"?>
<!-- Generator: Adobe Illustrator 26.2.1, SVG Export Plug-In . SVG Version: 6.00 Build 0)  -->
<svg version="1.1" id="magicoon-Regular" xmlns="http://www.w3.org/2000/svg" xmlns:xlink="http://www.w3.org/1999/xlink" x="0px"
	 y="0px" viewBox="0 0 24 24" style="enable-background:new 0 0 24 24;" xml:space="preserve">
<style type="text/css">
	.st0{fill:#FFFFFF;}
</style>
<g id="trash-Regular">
	<path id="trash-Regular-2" class="st0" d="M21,5.2h-3.6c-0.5,0-1-0.3-1.2-0.8l-0.3-0.9c-0.2-0.7-0.9-1.2-1.7-1.2H9.7
		C9,2.2,8.3,2.7,8.1,3.4L7.7,4.4C7.6,4.9,7.1,5.3,6.6,5.3H3C2.6,5.3,2.2,5.6,2.2,6S2.6,6.8,3,6.8h1.3l0.8,11.5
		c0.1,2,1.8,3.5,3.7,3.5h6.4c2,0,3.6-1.5,3.7-3.5l0.8-11.5H21c0.4,0,0.8-0.3,0.8-0.8S21.4,5.2,21,5.2z M9.5,3.9
		c0-0.1,0.1-0.2,0.2-0.2h4.6c0.1,0,0.2,0.1,0.2,0.2l0.3,0.9c0,0.1,0.1,0.3,0.2,0.4H9C9.1,5.1,9.1,5,9.2,4.9L9.5,3.9z M17.4,18.1
		c-0.1,1.2-1.1,2.1-2.2,2.1H8.8c-1.2,0-2.2-0.9-2.2-2.1L5.8,6.7h0.8c0.1,0,0.2,0,0.3,0c0,0,0.1,0,0.1,0h10c0,0,0.1,0,0.1,0
		c0.1,0,0.2,0,0.3,0h0.8L17.4,18.1z M14.8,11v5c0,0.4-0.3,0.7-0.8,0.7s-0.8-0.3-0.8-0.7v-5c0-0.4,0.3-0.8,0.8-0.8S14.8,10.6,14.8,11
		z M10.8,11v5c0,0.4-0.3,0.7-0.8,0.7S9.2,16.4,9.2,16v-5c0-0.4,0.3-0.8,0.8-0.8S10.8,10.6,10.8,11z"/>
</g>
</svg>
