<svg width="18" height="18" viewBox="0 0 18 18" fill="none" xmlns="http://www.w3.org/2000/svg">
<g clip-path="url(#clip0_4957_82754)">
<path d="M10.1347 13.5228C10.1347 14.1836 9.69166 14.6769 9.00706 14.6769H8.98326C8.32245 14.6769 7.86661 14.1836 7.86661 13.5228C7.86661 12.8391 8.33613 12.3696 9.00706 12.3696C9.67798 12.3696 10.1228 12.8372 10.1347 13.5228ZM8.28489 11.7362H9.73194L10.0084 5.99391H8.00572L8.28489 11.7362ZM17.8337 16.5825C17.6242 16.9258 17.2516 17.1372 16.8508 17.1372H1.1505C0.735876 17.1372 0.353292 16.9139 0.148323 16.5533C-0.0539294 16.1927 -0.0493392 15.7524 0.162094 15.3964L8.04151 1.4177C8.24835 1.06903 8.62269 0.859375 9.0272 0.859375H9.0583C9.4747 0.869399 9.84904 1.10463 10.0431 1.4726L17.8667 15.4522C18.0534 15.8082 18.0452 16.2356 17.8337 16.5825ZM16.8508 15.983L9.02626 2.00797L1.15144 15.983H16.8508Z" fill="white"/>
</g>
<defs>
<clipPath id="clip0_4957_82754">
<rect width="18" height="18" fill="white"/>
</clipPath>
</defs>
</svg>
