<svg width="20" height="20" viewBox="0 0 20 20" fill="none" xmlns="http://www.w3.org/2000/svg">
<path fill-rule="evenodd" clip-rule="evenodd" d="M1.32769 0.880933H11.8888C12.1327 0.880933 12.3354 1.08213 12.3354 1.31417V17.1883C12.3354 17.4265 12.1373 17.6216 11.8888 17.6216H1.32769C1.08386 17.6216 0.881197 17.4205 0.881197 17.1883V1.31417C0.881197 1.07609 1.07915 0.880933 1.32769 0.880933ZM0 17.1885C0 17.9088 0.598592 18.503 1.32769 18.503H11.8888C12.6211 18.503 13.2165 17.9162 13.2165 17.1885V1.31443C13.2165 0.594325 12.6179 0 11.8888 0H1.32769C0.595458 0 0 0.586773 0 1.31443V17.1885Z" fill="white"/>
<path fill-rule="evenodd" clip-rule="evenodd" d="M15.198 1.82727C15.4331 1.87299 15.5915 2.10797 15.5471 2.33659L12.5181 17.9192C12.4727 18.1533 12.2425 18.307 12.0027 18.2603L8.94908 17.6668C8.71027 17.6203 8.47899 17.7764 8.4325 18.0152C8.38604 18.254 8.5421 18.4853 8.78091 18.5318L11.8346 19.1253C12.5504 19.2644 13.2444 18.8007 13.3831 18.0873L16.4119 2.50477C16.5493 1.79852 16.0789 1.10096 15.3661 0.962452L12.8053 0.464607C12.5665 0.418142 12.3352 0.574201 12.2889 0.813015C12.2424 1.05183 12.3983 1.28311 12.6372 1.32959L15.198 1.82727Z" fill="white"/>
<path fill-rule="evenodd" clip-rule="evenodd" d="M18.4001 3.56414C18.6194 3.65279 18.729 3.91269 18.6416 4.12909L12.6949 18.8473C12.6054 19.0689 12.3511 19.1757 12.1241 19.0839L8.89137 17.7779C8.66568 17.6867 8.40904 17.7957 8.31785 18.0213C8.22669 18.2468 8.3357 18.5036 8.56123 18.5948L11.7939 19.901C12.471 20.1744 13.2395 19.8515 13.5118 19.1773L19.4584 4.45908C19.7276 3.79252 19.4015 3.01841 18.7299 2.74713L16.1865 1.71946C15.9609 1.6283 15.7042 1.73731 15.613 1.96284C15.5219 2.18853 15.6308 2.44517 15.8565 2.53636L18.4001 3.56414Z" fill="white"/>
</svg>
