<svg width="132" height="64" viewBox="0 0 132 64" fill="none" xmlns="http://www.w3.org/2000/svg">
<path d="M20.4542 28.492C19.4304 28.5028 18.4267 28.7709 17.5398 29.2704C16.653 29.7698 15.9129 30.4839 15.3909 31.3436V22.0433C15.3909 21.6444 15.5005 20.7095 14.679 21.0887C13.8574 21.4678 11.4529 22.7484 10.4029 23.1753C9.81958 23.4126 9.91389 23.8872 10.4029 23.8872C10.8919 23.8872 11.6184 24.029 11.6184 24.5513V42.5532C12.3127 41.9882 13.1797 41.6644 14.0831 41.6327C14.7876 41.6668 15.4811 41.8171 16.1341 42.0773C17.2606 42.4742 18.4458 42.6891 19.6432 42.7135C23.5665 42.7135 26.4768 39.6245 26.4768 34.9249C26.4782 31.1738 24.0436 28.492 20.4542 28.492ZM18.9173 41.6524C16.4723 41.6524 15.3168 38.9406 15.3168 35.602C15.3168 32.6747 16.7259 30.4353 18.7672 30.4353C21.0788 30.4353 22.4983 32.7149 22.4983 35.7132C22.4983 39.1826 21.041 41.6518 18.9173 41.6518V41.6524Z" fill="#A0A3BD"/>
<path d="M41.0854 35.7929C41.0854 31.1922 38.9897 28.7817 34.8268 28.7817C30.6352 28.7817 27.8018 31.7821 27.8018 35.7998C27.8018 40.1345 30.6869 42.9998 35.0769 42.9998C37.8398 42.9998 40.1577 41.6511 40.9562 39.9484C41.0052 39.879 41.0281 39.7953 41.0211 39.7114C41.0141 39.6274 40.9776 39.5484 40.9177 39.4877C40.8579 39.427 40.7785 39.3883 40.6928 39.3782C40.6072 39.3681 40.5206 39.3872 40.4477 39.4322C39.3361 40.1896 38.0244 40.6181 36.6697 40.6664C34.2155 40.6664 32.3384 39.5754 31.8836 36.7462H40.2318C40.4663 36.7109 40.6806 36.5959 40.8367 36.4215C40.9929 36.2471 41.081 36.0245 41.0854 35.7929ZM37.0567 35.7288H31.8054L31.7886 35.797C31.7816 35.6456 31.7767 35.4922 31.7767 35.3327C31.7767 31.4547 32.8707 30.0098 34.4558 30.0098C36.2023 30.0098 37.0567 32.1919 37.0567 34.8731V35.7288Z" fill="#A0A3BD"/>
<path d="M49.2262 41.7545C48.2531 41.3126 48.024 41.2008 48.024 39.567V22.0519C48.024 21.6571 48.1385 20.7086 47.3128 21.0877C46.4871 21.4669 44.0867 22.7481 43.0367 23.175C42.4534 23.4123 42.5477 23.8862 43.0367 23.8862C43.5257 23.8862 44.2516 24.0287 44.2516 24.5504V39.567C44.2516 41.2035 44.0224 41.3126 43.05 41.7545C42.547 41.9829 42.6504 42.3279 42.934 42.3975H49.3422C49.6258 42.3279 49.7292 41.9829 49.2262 41.7545Z" fill="#A0A3BD"/>
<path d="M57.142 41.7545C56.1689 41.3126 55.9397 41.2008 55.9397 39.567V22.0519H55.9306H55.9348C55.9348 21.6571 56.0487 20.7086 55.223 21.0877C54.3972 21.4669 51.9968 22.7481 50.9468 23.175C50.3635 23.4123 50.4578 23.8862 50.9468 23.8862C51.4359 23.8862 52.1624 24.0287 52.1624 24.5504L52.1673 24.547V39.567C52.1673 41.2035 51.9382 41.3126 50.9657 41.7545C50.4627 41.9829 50.5661 42.3279 50.8498 42.3975H57.2579C57.5416 42.3279 57.645 41.9829 57.142 41.7545Z" fill="#A0A3BD"/>
<path d="M82.8442 42.0273C81.8725 41.5854 81.6427 41.4736 81.6427 39.8398V33.0966C81.6427 30.4018 80.096 28.7823 77.4511 28.7823C75.5251 28.7823 73.7081 30.1017 72.7287 31.4846C72.6665 31.5705 72.6218 31.6373 72.6015 31.6687C72.1348 29.8406 70.7153 28.7823 68.5769 28.7823C66.6509 28.7823 64.8339 30.1017 63.8538 31.4846V29.5712C63.8587 29.1348 63.8112 28.56 63.137 28.8695C62.3106 29.2494 59.9109 30.53 58.8609 30.9568C58.2776 31.1941 58.3719 31.668 58.8609 31.668C59.3499 31.668 60.0765 31.8105 60.0765 32.3322L60.0814 32.3288V39.8398C60.0814 41.4763 59.8522 41.5854 58.8798 42.0273C58.3768 42.2557 58.4802 42.6008 58.7638 42.6703H65.172C65.4556 42.6021 65.559 42.2557 65.056 42.0273C64.0829 41.5854 63.8538 41.4736 63.8538 39.8398V33.3134C63.9462 32.7039 64.2512 32.1441 64.7172 31.7283C65.1831 31.3126 65.7817 31.0664 66.412 31.0311C68.236 31.0311 68.957 32.3527 68.9968 34.6561V39.8384C68.9968 41.475 68.7676 41.5841 67.7952 42.026C67.2922 42.2544 67.3949 42.5994 67.6793 42.669H74.0874C74.3711 42.6008 74.4744 42.2544 73.9714 42.026C72.9983 41.5841 72.7699 41.4722 72.7699 39.8384V33.0952C72.7699 33.0659 72.7699 33.038 72.7699 33.0086C72.9314 32.4668 73.2596 31.9865 73.7101 31.6328C74.1605 31.2791 74.7115 31.0691 75.2883 31.0311C77.1123 31.0311 77.8333 32.3527 77.8731 34.6561V39.8384C77.8731 41.475 77.6439 41.5841 76.6715 42.026C76.1685 42.2544 76.2719 42.5994 76.5556 42.669H82.963C83.2446 42.6008 83.3479 42.2557 82.8442 42.0273Z" fill="#A0A3BD"/>
<path d="M97.7086 41.8215C97.5776 41.8627 97.4394 41.8782 97.3022 41.8669C97.165 41.8557 97.0314 41.818 96.9092 41.756C96.787 41.6941 96.6786 41.6091 96.5903 41.506C96.5019 41.4029 96.4354 41.2837 96.3946 41.1553C96.3378 40.9092 96.3106 40.6575 96.3135 40.4052V33.7377C96.3135 31.2829 95.4138 28.7817 91.0259 28.7817C89.9611 28.7868 88.9121 29.0338 87.9621 29.5032C87.012 29.9726 86.187 30.6515 85.5524 31.4861C85.2988 31.8271 85.5909 32.333 86.133 32.048C87.1904 31.3708 88.3997 30.9527 89.6581 30.8294C91.5443 30.8294 92.5824 31.8768 92.5824 33.7377V39.4601C92.436 39.9017 92.1523 40.2878 91.7706 40.5646C91.389 40.8414 90.9284 40.9952 90.4531 41.0046C90.1139 41.0226 89.7747 40.9708 89.4573 40.8527C89.1399 40.7346 88.8515 40.5527 88.6107 40.3188C88.3699 40.0849 88.1822 39.8043 88.0596 39.4951C87.937 39.1859 87.8823 38.855 87.899 38.5239C87.899 36.6971 89.8872 35.1145 92.5796 34.8417V34.0173C87.1466 34.3548 84.1699 35.9068 84.1699 39.2385C84.1699 41.1724 85.7229 42.9889 88.4313 42.9889C89.8886 42.9889 91.9494 42.0868 92.6019 40.7762C92.7347 42.1911 93.4724 42.9889 95.2978 42.9889C96.2225 42.9999 97.136 42.7909 97.9594 42.38C98.1152 42.3009 98.2305 42.2095 98.2305 42.0288C98.2354 41.8836 98.0572 41.7772 97.7086 41.8215Z" fill="#A0A3BD"/>
<path d="M114.96 42.0263C113.988 41.5844 113.759 41.4726 113.759 39.8388V33.0956C113.759 30.4007 112.212 28.7812 109.567 28.7812C108.558 28.8442 107.574 29.1179 106.682 29.5839C105.79 30.0498 105.011 30.6972 104.397 31.4822V29.5859C104.404 29.1481 104.362 28.5569 103.681 28.8699C102.855 29.2497 100.455 30.5303 99.4046 30.9572C98.822 31.1945 98.9156 31.6684 99.4046 31.6684C99.8936 31.6684 100.62 31.8109 100.62 32.3325L100.626 32.3291V39.8401C100.626 41.4767 100.397 41.5858 99.4242 42.0276C98.9212 42.2561 99.0238 42.6011 99.3082 42.6707H105.716C106 42.6025 106.103 42.2561 105.6 42.0276C104.627 41.5858 104.398 41.4739 104.398 39.8401V33.294C104.414 32.3394 105.758 31.0294 107.103 31.0294C108.938 31.0294 109.937 32.3666 109.984 34.6946V39.8381C109.984 41.4746 109.755 41.5837 108.782 42.0256C108.28 42.254 108.382 42.5991 108.667 42.6686H115.074C115.36 42.5998 115.463 42.2547 114.96 42.0263Z" fill="#A0A3BD"/>
<path d="M119.896 38.5088C119.48 38.5088 119.073 38.6292 118.727 38.8549C118.381 39.0805 118.112 39.4013 117.952 39.7765C117.793 40.1518 117.751 40.5647 117.832 40.9631C117.914 41.3615 118.114 41.7274 118.408 42.0147C118.702 42.302 119.077 42.4976 119.485 42.577C119.893 42.6563 120.316 42.6157 120.701 42.4604C121.085 42.305 121.414 42.0419 121.645 41.7042C121.877 41.3665 122 40.9695 122 40.5633C122 40.0185 121.779 39.4961 121.384 39.1108C120.989 38.7255 120.454 38.509 119.896 38.5088Z" fill="#A0A3BD"/>
</svg>
