<svg width="16" height="17" viewBox="0 0 16 17" fill="none" xmlns="http://www.w3.org/2000/svg">
<mask id="path-1-inside-1_2501_19572" fill="white">
<path fill-rule="evenodd" clip-rule="evenodd" d="M8.0009 12.6705H6.16191C5.80761 12.6705 5.66755 12.4827 5.55794 12.1526L5.17109 10.9854C5.11083 10.804 5.09266 10.6303 4.94322 10.5076C3.90002 9.65199 3.23656 8.36719 3.23656 6.93071C3.23656 4.35499 5.36974 2.26679 8.001 2.26679C10.6323 2.26679 12.7654 4.35514 12.7654 6.93071C12.7654 8.36715 12.1021 9.65199 11.0588 10.5076C10.9093 10.6303 10.8912 10.804 10.8309 10.9854L10.4441 12.1526C10.3344 12.4827 10.1944 12.6705 9.8401 12.6705H8.0009ZM7.19995 16.3214H8.8379V16.6609C8.8379 16.8473 8.6821 17 8.49147 17H7.54637C7.3556 17 7.19995 16.8473 7.19995 16.6609V16.3214ZM6.47788 15.2583L9.55981 15.1236C9.76921 15.1143 9.94045 15.2749 9.94045 15.4801V15.4804C9.94045 15.6857 9.76921 15.8613 9.55981 15.8703L6.47788 16.0052C6.26849 16.0143 6.09724 15.8539 6.09724 15.6484C6.09724 15.4432 6.26849 15.2675 6.47788 15.2583V15.2583ZM6.32481 14.2253L9.71287 14.0771C9.92226 14.0681 10.0935 14.2284 10.0935 14.4339C10.0935 14.6392 9.92226 14.8148 9.71287 14.8239L6.32481 14.9724C6.11541 14.9814 5.94417 14.821 5.94417 14.6156V14.6153C5.94417 14.41 6.11541 14.2347 6.32481 14.2253V14.2253ZM6.32481 13.1854L9.71287 13.0372C9.92226 13.0281 10.0935 13.1885 10.0935 13.3939C10.0935 13.5992 9.92226 13.7749 9.71287 13.7841L6.32481 13.9323C6.11541 13.9413 5.94417 13.781 5.94417 13.5755C5.94417 13.3702 6.11541 13.1946 6.32481 13.1854ZM1.68556 11.1544C1.60607 11.2014 1.58079 11.3026 1.62878 11.3805C1.67678 11.4583 1.78019 11.483 1.85968 11.436L3.04641 10.7334C3.1259 10.6865 3.15149 10.5849 3.10334 10.5074C3.05535 10.4296 2.95194 10.4045 2.87245 10.4517L1.68541 11.1545L1.68556 11.1544ZM1.59229 9.19118C1.50296 9.21638 1.45149 9.30754 1.47722 9.39484C1.50266 9.4823 1.59578 9.53269 1.68511 9.50779L2.35175 9.32058C2.44108 9.29538 2.49256 9.20422 2.46712 9.11692C2.44169 9.02947 2.34827 8.97907 2.25909 9.00397L1.59245 9.19118H1.59229ZM0.665995 7.47026C0.573183 7.47159 0.499142 7.54645 0.500507 7.63731C0.50187 7.72817 0.57833 7.80095 0.671142 7.79961L2.05819 7.77886C2.1513 7.77753 2.22504 7.70268 2.22368 7.61151C2.22231 7.52095 2.14585 7.44817 2.05304 7.4495L0.665995 7.47026ZM1.59687 5.72904C1.50678 5.70666 1.41533 5.76017 1.39232 5.84807C1.36945 5.93626 1.42411 6.02579 1.5139 6.04832L2.18632 6.21567C2.2761 6.23805 2.36785 6.18483 2.39056 6.09664C2.41358 6.00845 2.35907 5.91892 2.26898 5.89669L1.59687 5.72904ZM1.68363 3.7858C1.60278 3.74118 1.50027 3.76905 1.4547 3.8482C1.40912 3.92735 1.43759 4.0277 1.51844 4.07232L2.72699 4.73963C2.80784 4.78395 2.91035 4.75608 2.95592 4.67693C3.0015 4.59778 2.97303 4.49743 2.89188 4.45282L1.68363 3.7858ZM3.38424 2.74183C3.31838 2.6781 3.21164 2.67884 3.14653 2.74376C3.08143 2.80853 3.08218 2.91274 3.1485 2.97648L3.64254 3.45304C3.70871 3.51677 3.81515 3.51603 3.88056 3.45111C3.94566 3.38634 3.94491 3.28213 3.87859 3.2184L3.38424 2.74183ZM4.4609 1.1066C4.41396 1.02804 4.31085 1.00166 4.23076 1.04731C4.15051 1.09326 4.12356 1.1939 4.17019 1.27261L4.87001 2.44536C4.91665 2.52378 5.01976 2.55031 5.09985 2.50436C5.1801 2.45871 5.20735 2.35776 5.16042 2.27906L4.4609 1.1066ZM6.44237 0.955999C6.4183 0.868101 6.32564 0.816222 6.23616 0.839938C6.14667 0.863802 6.09338 0.954219 6.1176 1.04182L6.32382 1.78666C6.34789 1.87426 6.44056 1.92644 6.53004 1.90242C6.61952 1.87886 6.67251 1.78814 6.64829 1.70054L6.44237 0.955999ZM14.3154 11.1543C14.3946 11.2013 14.4202 11.3025 14.3722 11.3804C14.3242 11.4582 14.2208 11.4829 14.1413 11.4359L12.9546 10.7333C12.8748 10.6863 12.8495 10.5848 12.8976 10.5073C12.9456 10.4295 13.049 10.4044 13.1285 10.4516L14.3156 11.1544L14.3154 11.1543ZM14.4087 9.19107C14.4977 9.21627 14.5495 9.30743 14.5238 9.39473C14.4983 9.48219 14.4052 9.53258 14.3159 9.50768L13.6492 9.32047C13.5599 9.29528 13.5081 9.20412 13.5339 9.11681C13.5593 9.02936 13.6527 8.97896 13.7417 9.00386L14.4087 9.19107ZM15.335 7.47015C15.4278 7.47149 15.5018 7.54634 15.5005 7.6372C15.4991 7.72806 15.4226 7.80084 15.3298 7.79951L13.9428 7.77876C13.8497 7.77742 13.7756 7.70257 13.7773 7.61141C13.7787 7.52084 13.855 7.44806 13.9479 7.4494L15.335 7.47015ZM14.4041 5.72894C14.4942 5.70655 14.5856 5.76006 14.6087 5.84796C14.6315 5.93615 14.5769 6.02568 14.4871 6.04821L13.8147 6.21556C13.7249 6.23794 13.6331 6.18473 13.6104 6.09654C13.5874 6.00834 13.6419 5.91881 13.732 5.89658L14.4041 5.72894ZM14.3174 3.78569C14.3982 3.74108 14.5007 3.76894 14.5463 3.84809C14.5919 3.92725 14.5634 4.0276 14.4825 4.07221L13.274 4.73953C13.1931 4.78385 13.0906 4.75598 13.0451 4.67683C12.9995 4.59768 13.0279 4.49732 13.1088 4.45271L14.3174 3.78569ZM12.6167 2.74173C12.6826 2.67799 12.7893 2.67873 12.8544 2.74366C12.9195 2.80843 12.9188 2.91263 12.8525 2.97637L12.3584 3.45293C12.2923 3.51667 12.1858 3.51593 12.1204 3.451C12.0553 3.38623 12.0561 3.28203 12.1224 3.21829L12.6167 2.74173ZM11.5401 1.10649C11.587 1.02793 11.6901 1.00155 11.7702 1.0472C11.8505 1.09315 11.8774 1.1938 11.8308 1.2725L11.131 2.44526C11.0843 2.52367 10.9812 2.5502 10.9008 2.50425C10.8207 2.4586 10.7936 2.35766 10.8406 2.27895L11.5401 1.10649ZM9.5586 0.955893C9.58268 0.867995 9.67534 0.816116 9.76482 0.839832C9.8543 0.863696 9.9076 0.954113 9.88337 1.04171L9.67715 1.78655C9.65308 1.87415 9.56042 1.92633 9.47094 1.90232C9.38145 1.87875 9.32816 1.78804 9.35269 1.70043L9.5586 0.955893ZM7.83225 0.164381C7.83225 0.07352 7.90765 0 8.00046 0C8.09327 0 8.16867 0.07352 8.16867 0.164381V1.52242C8.16867 1.61328 8.09327 1.6871 8.00046 1.6871C7.90765 1.6871 7.83225 1.61328 7.83225 1.52242V0.164381Z"/>
</mask>
<path fill-rule="evenodd" clip-rule="evenodd" d="M8.0009 12.6705H6.16191C5.80761 12.6705 5.66755 12.4827 5.55794 12.1526L5.17109 10.9854C5.11083 10.804 5.09266 10.6303 4.94322 10.5076C3.90002 9.65199 3.23656 8.36719 3.23656 6.93071C3.23656 4.35499 5.36974 2.26679 8.001 2.26679C10.6323 2.26679 12.7654 4.35514 12.7654 6.93071C12.7654 8.36715 12.1021 9.65199 11.0588 10.5076C10.9093 10.6303 10.8912 10.804 10.8309 10.9854L10.4441 12.1526C10.3344 12.4827 10.1944 12.6705 9.8401 12.6705H8.0009ZM7.19995 16.3214H8.8379V16.6609C8.8379 16.8473 8.6821 17 8.49147 17H7.54637C7.3556 17 7.19995 16.8473 7.19995 16.6609V16.3214ZM6.47788 15.2583L9.55981 15.1236C9.76921 15.1143 9.94045 15.2749 9.94045 15.4801V15.4804C9.94045 15.6857 9.76921 15.8613 9.55981 15.8703L6.47788 16.0052C6.26849 16.0143 6.09724 15.8539 6.09724 15.6484C6.09724 15.4432 6.26849 15.2675 6.47788 15.2583V15.2583ZM6.32481 14.2253L9.71287 14.0771C9.92226 14.0681 10.0935 14.2284 10.0935 14.4339C10.0935 14.6392 9.92226 14.8148 9.71287 14.8239L6.32481 14.9724C6.11541 14.9814 5.94417 14.821 5.94417 14.6156V14.6153C5.94417 14.41 6.11541 14.2347 6.32481 14.2253V14.2253ZM6.32481 13.1854L9.71287 13.0372C9.92226 13.0281 10.0935 13.1885 10.0935 13.3939C10.0935 13.5992 9.92226 13.7749 9.71287 13.7841L6.32481 13.9323C6.11541 13.9413 5.94417 13.781 5.94417 13.5755C5.94417 13.3702 6.11541 13.1946 6.32481 13.1854ZM1.68556 11.1544C1.60607 11.2014 1.58079 11.3026 1.62878 11.3805C1.67678 11.4583 1.78019 11.483 1.85968 11.436L3.04641 10.7334C3.1259 10.6865 3.15149 10.5849 3.10334 10.5074C3.05535 10.4296 2.95194 10.4045 2.87245 10.4517L1.68541 11.1545L1.68556 11.1544ZM1.59229 9.19118C1.50296 9.21638 1.45149 9.30754 1.47722 9.39484C1.50266 9.4823 1.59578 9.53269 1.68511 9.50779L2.35175 9.32058C2.44108 9.29538 2.49256 9.20422 2.46712 9.11692C2.44169 9.02947 2.34827 8.97907 2.25909 9.00397L1.59245 9.19118H1.59229ZM0.665995 7.47026C0.573183 7.47159 0.499142 7.54645 0.500507 7.63731C0.50187 7.72817 0.57833 7.80095 0.671142 7.79961L2.05819 7.77886C2.1513 7.77753 2.22504 7.70268 2.22368 7.61151C2.22231 7.52095 2.14585 7.44817 2.05304 7.4495L0.665995 7.47026ZM1.59687 5.72904C1.50678 5.70666 1.41533 5.76017 1.39232 5.84807C1.36945 5.93626 1.42411 6.02579 1.5139 6.04832L2.18632 6.21567C2.2761 6.23805 2.36785 6.18483 2.39056 6.09664C2.41358 6.00845 2.35907 5.91892 2.26898 5.89669L1.59687 5.72904ZM1.68363 3.7858C1.60278 3.74118 1.50027 3.76905 1.4547 3.8482C1.40912 3.92735 1.43759 4.0277 1.51844 4.07232L2.72699 4.73963C2.80784 4.78395 2.91035 4.75608 2.95592 4.67693C3.0015 4.59778 2.97303 4.49743 2.89188 4.45282L1.68363 3.7858ZM3.38424 2.74183C3.31838 2.6781 3.21164 2.67884 3.14653 2.74376C3.08143 2.80853 3.08218 2.91274 3.1485 2.97648L3.64254 3.45304C3.70871 3.51677 3.81515 3.51603 3.88056 3.45111C3.94566 3.38634 3.94491 3.28213 3.87859 3.2184L3.38424 2.74183ZM4.4609 1.1066C4.41396 1.02804 4.31085 1.00166 4.23076 1.04731C4.15051 1.09326 4.12356 1.1939 4.17019 1.27261L4.87001 2.44536C4.91665 2.52378 5.01976 2.55031 5.09985 2.50436C5.1801 2.45871 5.20735 2.35776 5.16042 2.27906L4.4609 1.1066ZM6.44237 0.955999C6.4183 0.868101 6.32564 0.816222 6.23616 0.839938C6.14667 0.863802 6.09338 0.954219 6.1176 1.04182L6.32382 1.78666C6.34789 1.87426 6.44056 1.92644 6.53004 1.90242C6.61952 1.87886 6.67251 1.78814 6.64829 1.70054L6.44237 0.955999ZM14.3154 11.1543C14.3946 11.2013 14.4202 11.3025 14.3722 11.3804C14.3242 11.4582 14.2208 11.4829 14.1413 11.4359L12.9546 10.7333C12.8748 10.6863 12.8495 10.5848 12.8976 10.5073C12.9456 10.4295 13.049 10.4044 13.1285 10.4516L14.3156 11.1544L14.3154 11.1543ZM14.4087 9.19107C14.4977 9.21627 14.5495 9.30743 14.5238 9.39473C14.4983 9.48219 14.4052 9.53258 14.3159 9.50768L13.6492 9.32047C13.5599 9.29528 13.5081 9.20412 13.5339 9.11681C13.5593 9.02936 13.6527 8.97896 13.7417 9.00386L14.4087 9.19107ZM15.335 7.47015C15.4278 7.47149 15.5018 7.54634 15.5005 7.6372C15.4991 7.72806 15.4226 7.80084 15.3298 7.79951L13.9428 7.77876C13.8497 7.77742 13.7756 7.70257 13.7773 7.61141C13.7787 7.52084 13.855 7.44806 13.9479 7.4494L15.335 7.47015ZM14.4041 5.72894C14.4942 5.70655 14.5856 5.76006 14.6087 5.84796C14.6315 5.93615 14.5769 6.02568 14.4871 6.04821L13.8147 6.21556C13.7249 6.23794 13.6331 6.18473 13.6104 6.09654C13.5874 6.00834 13.6419 5.91881 13.732 5.89658L14.4041 5.72894ZM14.3174 3.78569C14.3982 3.74108 14.5007 3.76894 14.5463 3.84809C14.5919 3.92725 14.5634 4.0276 14.4825 4.07221L13.274 4.73953C13.1931 4.78385 13.0906 4.75598 13.0451 4.67683C12.9995 4.59768 13.0279 4.49732 13.1088 4.45271L14.3174 3.78569ZM12.6167 2.74173C12.6826 2.67799 12.7893 2.67873 12.8544 2.74366C12.9195 2.80843 12.9188 2.91263 12.8525 2.97637L12.3584 3.45293C12.2923 3.51667 12.1858 3.51593 12.1204 3.451C12.0553 3.38623 12.0561 3.28203 12.1224 3.21829L12.6167 2.74173ZM11.5401 1.10649C11.587 1.02793 11.6901 1.00155 11.7702 1.0472C11.8505 1.09315 11.8774 1.1938 11.8308 1.2725L11.131 2.44526C11.0843 2.52367 10.9812 2.5502 10.9008 2.50425C10.8207 2.4586 10.7936 2.35766 10.8406 2.27895L11.5401 1.10649ZM9.5586 0.955893C9.58268 0.867995 9.67534 0.816116 9.76482 0.839832C9.8543 0.863696 9.9076 0.954113 9.88337 1.04171L9.67715 1.78655C9.65308 1.87415 9.56042 1.92633 9.47094 1.90232C9.38145 1.87875 9.32816 1.78804 9.35269 1.70043L9.5586 0.955893ZM7.83225 0.164381C7.83225 0.07352 7.90765 0 8.00046 0C8.09327 0 8.16867 0.07352 8.16867 0.164381V1.52242C8.16867 1.61328 8.09327 1.6871 8.00046 1.6871C7.90765 1.6871 7.83225 1.61328 7.83225 1.52242V0.164381Z" stroke="#20164F" stroke-width="2" mask="url(#path-1-inside-1_2501_19572)"/>
</svg>
