<svg width="17" height="18" viewBox="0 0 17 18" fill="none" xmlns="http://www.w3.org/2000/svg">
<path d="M9.52376 9.72353C9.6871 9.78936 9.86459 9.8397 10.0557 9.87025L10.0649 9.87172L10.0741 9.87284C10.5057 9.92551 10.8849 9.73887 11.1456 9.48253C11.4055 9.22696 11.5849 8.86987 11.6211 8.48817C11.6583 8.09491 11.542 7.67332 11.2085 7.33868C10.8829 7.01199 10.3968 6.81376 9.77354 6.75056L9.77353 6.75056C8.44871 6.61624 7.34705 7.38019 7.01114 8.45978C6.66253 9.58019 7.17877 10.8541 8.67908 11.6696L8.67976 11.67C10.2294 12.5093 11.8242 12.0146 12.8627 10.982C13.8909 9.9597 14.4471 8.34478 13.9181 6.81113C12.8889 3.79295 9.76268 3.10987 7.41628 3.61811L7.41628 3.6181L7.41336 3.61875C5.45138 4.05601 3.33063 5.70867 2.94569 8.95718L2.94569 8.9572C2.74689 10.6354 3.41341 12.34 4.47845 13.6749C5.54304 15.0093 7.05636 16.039 8.64976 16.3226C10.2034 16.609 11.7638 16.5711 13.0626 16.4286C10.9059 17.1331 8.26044 17.2281 5.95222 16.4773C4.47418 15.9966 3.15319 15.1751 2.18424 13.9654C1.21799 12.759 0.578967 11.1383 0.506223 9.01608L0.506218 9.01594C0.425332 6.67596 1.13928 4.89826 2.27381 3.62079C3.41462 2.33625 5.00876 1.52676 6.72913 1.18567C10.211 0.495359 13.988 1.7442 15.4165 4.50757C16.9504 7.48301 16.4157 10.0139 14.9966 11.6397C13.557 13.2889 11.1663 14.0605 8.87553 13.41L8.73895 13.891L8.87553 13.41C6.59347 12.762 5.48334 11.097 5.34503 9.5049C5.20562 7.90025 6.03956 6.3797 7.69913 5.89099C9.48853 5.36407 10.5637 5.76653 11.1919 6.35878C11.8525 6.98165 12.1081 7.89602 12.0866 8.51416C12.0593 9.05334 11.731 9.5193 11.2562 9.7895C10.7805 10.0603 10.2114 10.1038 9.74189 9.8613C9.65758 9.81584 9.58548 9.76966 9.52376 9.72353Z" stroke="#20164F"/>
</svg>
