<svg width="18" height="18" viewBox="0 0 18 18" fill="none" xmlns="http://www.w3.org/2000/svg">
<path d="M1.06515 14.2056C0.700919 14.5699 0.5 15.0544 0.5 15.5698C0.5 16.0855 0.700603 16.5704 1.06515 16.9348C1.42987 17.2991 1.91444 17.5 2.43014 17.5C2.94552 17.5 3.43009 17.2994 3.7948 16.9348C4.052 16.677 4.22814 16.3585 4.30951 16.0072L5.61028 14.7062L5.61077 14.7057L6.41513 13.9014L7.42384 14.9104C7.50119 14.9878 7.60611 15.0312 7.71542 15.0312C7.82537 15.0312 7.93029 14.9878 8.00765 14.9104L8.98244 13.9349C9.14379 13.7742 9.14379 13.5128 8.98244 13.3514L8.08076 12.4491L16.9032 6.07381C17.0002 6.00359 17.0623 5.89461 17.0725 5.77525L17.4984 0.949353C17.5091 0.82756 17.4653 0.707552 17.3787 0.621276C17.2925 0.534515 17.1723 0.490889 17.0505 0.501592L12.2251 0.926972C12.1055 0.937188 11.9966 0.999464 11.9266 1.09644L5.55145 9.91955L4.64915 9.01752C4.57179 8.94017 4.46703 8.89638 4.35708 8.89638C4.24761 8.89638 4.14269 8.94017 4.06534 9.01752L3.09005 9.99233C2.92902 10.1537 2.92902 10.415 3.09005 10.5761L4.09876 11.5849L1.99313 13.6905C1.64187 13.7718 1.32369 13.9481 1.0655 14.2056L1.06515 14.2056ZM2.43014 16.6746C2.13515 16.6746 1.85802 16.5597 1.64944 16.3509C1.44089 16.1421 1.32575 15.865 1.32575 15.5701C1.32575 15.2753 1.44056 14.998 1.64944 14.7896C1.81583 14.6232 2.02681 14.516 2.25906 14.4798C2.31549 14.4711 2.37323 14.4661 2.43015 14.4661C2.72546 14.4661 3.00261 14.5812 3.21068 14.7894C3.24182 14.8204 3.27069 14.8532 3.29744 14.8871C3.48523 15.1263 3.56778 15.4365 3.52043 15.7412C3.48442 15.9735 3.37723 16.1843 3.21068 16.3509C3.00213 16.5594 2.72499 16.6746 2.43015 16.6746L2.43014 16.6746ZM12.4856 1.73315L16.6325 1.36793L16.2671 5.51524L7.48949 11.8577L7.10791 11.476L14.5388 4.04533C14.7001 3.88429 14.7001 3.62269 14.5388 3.46135C14.3777 3.29999 14.1167 3.29999 13.9553 3.46135L6.52482 10.8924L6.14307 10.5108L12.4856 1.73315ZM4.3573 9.89366L8.10732 13.6438L7.71584 14.0351L6.70892 13.0282C6.70843 13.0272 6.70795 13.0267 6.70746 13.0264L4.97468 11.2934C4.97468 11.2934 4.9742 11.2934 4.9742 11.2929L3.96632 10.285L4.3573 9.89366ZM5.83127 13.3183L5.31913 13.8304L4.17048 12.6817L4.68261 12.1696L5.83127 13.3183ZM3.58602 13.2653L4.73467 14.4144L4.24134 14.9076C4.23859 14.9005 4.23599 14.8932 4.23324 14.8857C4.22724 14.8706 4.22107 14.8552 4.21459 14.84C4.20713 14.8221 4.19999 14.8035 4.1914 14.7858C4.18491 14.7707 4.17794 14.7553 4.17096 14.7404C4.16221 14.7229 4.15329 14.7049 4.14469 14.6872C4.13723 14.6728 4.12929 14.6582 4.1215 14.6434C4.11177 14.6259 4.10204 14.6087 4.09166 14.591C4.08323 14.5769 4.07544 14.5631 4.06685 14.5492C4.05566 14.5315 4.04447 14.5145 4.03296 14.4971C4.0242 14.4842 4.01577 14.4709 4.00652 14.4579C3.99404 14.4402 3.98122 14.4232 3.96809 14.4054C3.95933 14.3937 3.95041 14.3817 3.94117 14.3703C3.92657 14.3512 3.91003 14.3327 3.89446 14.3144C3.88652 14.3051 3.87938 14.2952 3.87079 14.286C3.8463 14.2587 3.821 14.2318 3.79473 14.2057C3.77057 14.1816 3.74608 14.158 3.72111 14.1357C3.713 14.1282 3.70408 14.1207 3.69581 14.1133C3.67862 14.0984 3.66191 14.0839 3.64472 14.0695C3.63402 14.0611 3.62332 14.0533 3.61294 14.0448C3.59721 14.0324 3.58131 14.0203 3.5651 14.0083C3.55342 13.9999 3.54191 13.9923 3.53039 13.9842C3.51482 13.973 3.49828 13.9618 3.48272 13.9516C3.47055 13.9436 3.45823 13.9359 3.4459 13.9284C3.42985 13.9182 3.41363 13.9084 3.39725 13.899C3.38477 13.8919 3.37244 13.8846 3.3593 13.8771C3.34309 13.8684 3.32622 13.8596 3.30952 13.8514C3.29655 13.8449 3.28422 13.8379 3.27108 13.8319C3.25341 13.8235 3.23573 13.8154 3.21806 13.8074C3.20557 13.8019 3.19324 13.7962 3.18043 13.7907C3.16162 13.7831 3.14249 13.7756 3.12303 13.768C3.11329 13.7643 3.10421 13.7604 3.09448 13.7568L3.58602 13.2653Z" fill="#20164F"/>
</svg>
